M48
; DRILL file {KiCad 6.0.8-f2edbf62ab~116~ubuntu20.04.1} date Tue 04 Oct 2022 04:34:17 PM
; FORMAT={-:-/ absolute / inch / decimal}
; #@! TF.CreationDate,2022-10-04T16:34:17-04:00
; #@! TF.GenerationSoftware,Kicad,Pcbnew,6.0.8-f2edbf62ab~116~ubuntu20.04.1
; #@! TF.FileFunction,Plated,1,4,PTH
FMAT,2
INCH
; #@! TA.AperFunction,Plated,PTH,ViaDrill
T1C0.0100
; #@! TA.AperFunction,Plated,PTH,ComponentDrill
T2C0.0138
; #@! TA.AperFunction,Plated,PTH,ComponentDrill
T3C0.0173
; #@! TA.AperFunction,Plated,PTH,ViaDrill
T4C0.0197
; #@! TA.AperFunction,Plated,PTH,ComponentDrill
T5C0.0394
; #@! TA.AperFunction,Plated,PTH,ComponentDrill
T6C0.0402
; #@! TA.AperFunction,Plated,PTH,ComponentDrill
T7C0.0413
%
G90
G05
T1
X0.8374Y-1.8924
X0.8407Y-3.0866
X0.8447Y-3.0079
X0.8484Y-2.9705
X0.8674Y-1.9174
X0.9274Y-2.2774
X1.0474Y-2.3174
X1.0774Y-2.3274
X1.0945Y-2.0787
X1.0974Y-2.2224
X1.1102Y-2.1339
X1.1324Y-1.9474
X1.1424Y-2.2274
X1.1524Y-2.2924
X1.1549Y-2.8228
X1.1774Y-1.8324
X1.1774Y-2.3824
X1.1833Y-3.1319
X1.1874Y-2.2924
X1.2174Y-1.8524
X1.2224Y-1.6524
X1.2474Y-1.6774
X1.2624Y-2.2674
X1.2774Y-2.4324
X1.2874Y-1.8974
X1.2874Y-2.4624
X1.3071Y-2.0472
X1.311Y-2.9646
X1.315Y-2.1417
X1.3622Y-1.6791
X1.3937Y-1.7018
X1.3974Y-2.0174
X1.4114Y-2.1673
X1.4213Y-3.1654
X1.4843Y-2.9882
X1.4961Y-2.878
X1.5827Y-2.9567
X1.5827Y-2.9882
X1.5942Y-1.9606
X1.6358Y-2.6909
X1.7374Y-2.0074
X1.7392Y-2.8445
X1.7618Y-2.8209
X1.7854Y-2.6496
X1.811Y-2.7165
X1.8201Y-2.9429
X1.8504Y-2.7165
X1.8531Y-2.9469
X1.8681Y-2.622
X1.9902Y-2.7573
X1.998Y-2.7874
X2.0039Y-2.9449
X2.0157Y-2.9764
X2.0512Y-2.9685
X2.065Y-2.7213
X2.0681Y-2.9429
X2.1274Y-1.5524
X2.1299Y-2.4685
X2.1417Y-2.752
X2.1674Y-1.6924
X2.2244Y-2.5472
X2.2795Y-2.5433
X2.3752Y-2.7055
X2.4059Y-2.7102
X2.4504Y-2.8606
X2.4909Y-2.8587
X2.5106Y-2.7559
X2.5424Y-1.8824
X2.6124Y-1.8724
X2.6339Y-2.5059
X2.6693Y-2.8657
X2.6724Y-1.8574
X2.687Y-2.1201
X2.6902Y-1.5236
X2.7043Y-2.8642
X2.7382Y-2.1358
X2.7461Y-1.9331
X2.7587Y-1.4654
X2.7594Y-1.5232
X2.7657Y-2.8354
X2.7807Y-2.8736
X2.7815Y-2.5669
X2.7854Y-2.5
X2.7972Y-2.1476
X2.872Y-2.5039
X2.881Y-2.2826
X2.8819Y-1.9843
X2.9144Y-2.0719
X2.9281Y-2.0305
X2.9331Y-2.1732
X2.9457Y-2.0724
X2.9488Y-2.2283
X2.9547Y-2.4587
X2.9555Y-2.3374
X2.9665Y-2.5669
X2.9811Y-2.3181
X2.9882Y-2.4252
X3.0079Y-2.6925
X3.0413Y-1.9685
X3.0709Y-1.9803
X3.0768Y-2.3206
X3.0984Y-2.2913
X3.0996Y-2.5732
X3.1083Y-2.3209
X3.1094Y-2.0331
X3.1102Y-2.3524
X3.1299Y-2.5677
X3.1398Y-2.0433
X3.1407Y-2.6102
X3.1417Y-2.3661
X3.1457Y-1.874
X3.1496Y-2.4173
X3.1559Y-2.5394
X3.1811Y-2.4449
X3.1848Y-2.5561
X3.1902Y-2.5161
X3.2028Y-1.939
X3.2254Y-2.5276
X3.2264Y-1.8652
X3.2264Y-2.1654
X3.2362Y-2.1969
X3.2421Y-2.5541
X3.2618Y-2.5797
X3.2657Y-2.2047
X3.2736Y-1.9862
X3.276Y-2.2976
X3.2835Y-2.5433
X3.2933Y-2.2598
X3.2953Y-2.6575
X3.2972Y-1.9429
X3.3091Y-2.1161
X3.3091Y-2.2992
X3.313Y-2.6142
X3.3327Y-2.874
X3.3514Y-2.2904
X3.3619Y-2.5712
X3.372Y-2.8307
X3.3858Y-2.6142
X3.3972Y-2.5272
X3.4016Y-2.2992
X3.4291Y-2.3602
X3.4291Y-2.5197
X3.4331Y-2.2421
X3.4705Y-2.0807
X3.4843Y-2.4134
X3.4931Y-1.9114
X3.5039Y-2.2677
X3.5059Y-1.5394
X3.5463Y-1.7283
X3.5472Y-2.8701
X3.5512Y-2.6614
X3.5591Y-2.5157
X3.5669Y-1.5374
X3.5768Y-1.9902
X3.5906Y-2.8701
X3.6004Y-1.7283
X3.6004Y-1.9665
X3.6014Y-1.525
X3.6024Y-1.6083
X3.6063Y-2.4961
X3.6142Y-2.689
X3.628Y-1.815
X3.6457Y-2.689
X3.6614Y-1.7953
X3.6791Y-2.4793
X3.7146Y-1.5531
X3.7205Y-2.1988
X3.7382Y-1.628
X3.7451Y-2.4646
X3.7835Y-2.565
X3.7913Y-1.8071
X3.8189Y-1.7874
X3.835Y-1.5228
X3.9965Y-2.0634
X4.0335Y-2.0669
X4.1787Y-2.9673
X4.186Y-1.8553
X4.1929Y-2.9331
X4.1984Y-2.4937
X4.2126Y-1.876
X4.2169Y-2.4598
T3
X1.0325Y-2.8906
X1.0581Y-2.8512
X1.0837Y-2.8906
X1.1093Y-2.8512
X1.1348Y-2.8906
T4
X0.8484Y-3.1732
X0.8717Y-1.2846
X0.9074Y-2.6624
X0.9173Y-2.4331
X1.0098Y-3.0551
X1.0172Y-2.685
X1.0774Y-2.4674
X1.0984Y-2.6614
X1.1281Y-3.0118
X1.1393Y-2.7047
X1.1939Y-3.0199
X1.2195Y-3.2283
X1.3007Y-2.7047
X1.3535Y-1.4876
X1.3543Y-2.752
X1.3874Y-1.4574
X1.3937Y-3.063
X1.4324Y-1.4574
X1.4705Y-2.435
X1.4862Y-2.2638
X1.5472Y-3.1416
X1.5807Y-3.2835
X1.6437Y-3.2598
X1.8012Y-2.3917
X1.9185Y-2.8248
X1.9657Y-2.8228
X1.9846Y-3.1569
X1.999Y-3.3061
X2.0669Y-2.2835
X2.0974Y-3.2674
X2.188Y-1.8041
X2.2185Y-2.1417
X2.2323Y-2.2087
X2.2854Y-1.6594
X2.2924Y-1.6074
X2.3693Y-3.1709
X2.4252Y-3.0591
X2.4252Y-3.1811
X2.4748Y-3.2665
X2.556Y-2.7795
X2.5824Y-1.7224
X2.5827Y-2.8189
X2.7693Y-1.6079
X2.7854Y-3.1689
X2.789Y-1.5681
X2.8126Y-1.6047
X2.8346Y-1.7087
X2.839Y-1.5673
X2.8516Y-3.1827
X2.8524Y-2.4035
X2.8543Y-3.061
X2.8563Y-1.6059
X2.863Y-2.337
X2.8854Y-1.5665
X2.8953Y-3.2614
X2.9075Y-1.6634
X2.9941Y-2.5354
X3.0Y-1.9114
X3.0157Y-1.6417
X3.0374Y-3.0512
X3.0472Y-1.6083
X3.0827Y-2.5394
X3.0866Y-2.8858
X3.0906Y-3.2087
X3.1319Y-1.5354
X3.1516Y-3.0551
X3.1763Y-2.2292
X3.1791Y-1.5354
X3.185Y-2.3268
X3.1988Y-1.4567
X3.2126Y-2.0591
X3.2205Y-2.4173
X3.2224Y-1.5354
X3.248Y-1.4665
X3.2578Y-2.2619
X3.2913Y-3.1614
X3.3346Y-1.4862
X3.3524Y-3.061
X3.3524Y-3.185
X3.3661Y-1.9528
X3.4232Y-3.2382
X3.437Y-2.1693
X3.4453Y-1.5346
X3.448Y-2.7567
X3.4961Y-2.7638
X3.6634Y-2.0965
X3.6934Y-3.1654
X3.7485Y-3.061
X3.7525Y-3.1791
X3.841Y-3.2362
X3.8642Y-1.9675
X3.9535Y-1.4583
X3.9567Y-1.5059
X4.0187Y-2.2648
X4.0315Y-1.8406
X4.0492Y-2.5531
X4.0827Y-3.0276
X4.0866Y-2.6772
X4.1043Y-1.565
X4.126Y-3.2707
X4.1339Y-2.748
X4.1339Y-3.0118
X4.1339Y-3.1378
X4.2687Y-2.0787
X4.2687Y-2.126
X4.2874Y-2.1774
X4.3327Y-3.1309
T5
X1.4499Y-1.7303
X1.5499Y-1.7303
X1.6499Y-1.7303
X1.7499Y-1.7303
X1.8499Y-1.7303
X1.9499Y-1.7303
X2.0499Y-1.7303
X2.5492Y-1.3465
X2.5492Y-1.5433
X3.0028Y-1.7071
X3.0028Y-1.8071
X3.1028Y-1.7071
X3.1028Y-1.8071
X3.2028Y-1.7071
X3.2028Y-1.8071
X3.3028Y-1.7071
X3.3028Y-1.8071
X3.4028Y-1.7071
X3.4028Y-1.8071
X4.0148Y-2.7537
X4.0148Y-2.8537
X4.0148Y-2.9537
X4.3208Y-2.3583
X4.4208Y-2.3583
T6
X4.4016Y-2.7165
X4.4016Y-2.8165
X4.4016Y-2.9165
X4.4016Y-3.0165
T7
X0.9311Y-1.4248
X0.9311Y-1.5248
X0.9311Y-1.6248
X0.9311Y-1.7248
X1.2598Y-3.4114
X1.3598Y-3.4114
X1.4598Y-3.4114
X1.5598Y-3.4114
X1.7598Y-3.4114
X1.8598Y-3.4114
X1.9598Y-3.4114
X2.0598Y-3.4114
X2.2598Y-3.4114
X2.3598Y-3.4114
X2.4598Y-3.4114
X2.5598Y-3.4114
X2.7598Y-3.4114
X2.8598Y-3.4114
X2.9598Y-3.4114
X3.0598Y-3.4114
X3.2598Y-3.4114
X3.3598Y-3.4114
X3.4598Y-3.4114
X3.5598Y-3.4114
X3.7598Y-3.4114
X3.8598Y-3.4114
X3.9598Y-3.4114
X4.0598Y-3.4114
X4.3839Y-1.4248
X4.3839Y-1.5248
X4.3839Y-1.6248
X4.3839Y-1.7248
T2
G00X0.9429Y-2.9016
M15
G01X0.9429Y-2.8622
M16
G05
G00X1.2244Y-2.9016
M15
G01X1.2244Y-2.8622
M16
G05
T0
M30
