%TF.GenerationSoftware,KiCad,Pcbnew,6.0.5-a6ca702e91~116~ubuntu20.04.1*%
%TF.CreationDate,2022-06-15T16:45:58-04:00*%
%TF.ProjectId,CAN-Acquisition-Module,43414e2d-4163-4717-9569-736974696f6e,rev?*%
%TF.SameCoordinates,Original*%
%TF.FileFunction,Soldermask,Bot*%
%TF.FilePolarity,Negative*%
%FSLAX46Y46*%
G04 Gerber Fmt 4.6, Leading zero omitted, Abs format (unit mm)*
G04 Created by KiCad (PCBNEW 6.0.5-a6ca702e91~116~ubuntu20.04.1) date 2022-06-15 16:45:58*
%MOMM*%
%LPD*%
G01*
G04 APERTURE LIST*
G04 Aperture macros list*
%AMRoundRect*
0 Rectangle with rounded corners*
0 $1 Rounding radius*
0 $2 $3 $4 $5 $6 $7 $8 $9 X,Y pos of 4 corners*
0 Add a 4 corners polygon primitive as box body*
4,1,4,$2,$3,$4,$5,$6,$7,$8,$9,$2,$3,0*
0 Add four circle primitives for the rounded corners*
1,1,$1+$1,$2,$3*
1,1,$1+$1,$4,$5*
1,1,$1+$1,$6,$7*
1,1,$1+$1,$8,$9*
0 Add four rect primitives between the rounded corners*
20,1,$1+$1,$2,$3,$4,$5,0*
20,1,$1+$1,$4,$5,$6,$7,0*
20,1,$1+$1,$6,$7,$8,$9,0*
20,1,$1+$1,$8,$9,$2,$3,0*%
G04 Aperture macros list end*
%TA.AperFunction,Profile*%
%ADD10C,0.100000*%
%TD*%
%ADD11C,1.900000*%
%ADD12C,1.624000*%
%ADD13C,3.300000*%
%ADD14RoundRect,0.050000X-0.850000X0.850000X-0.850000X-0.850000X0.850000X-0.850000X0.850000X0.850000X0*%
%ADD15O,1.800000X1.800000*%
%ADD16C,2.100000*%
%ADD17RoundRect,0.050000X0.850000X-0.850000X0.850000X0.850000X-0.850000X0.850000X-0.850000X-0.850000X0*%
%ADD18RoundRect,0.050000X-1.000000X1.000000X-1.000000X-1.000000X1.000000X-1.000000X1.000000X1.000000X0*%
%ADD19RoundRect,0.050000X0.420000X0.420000X-0.420000X0.420000X-0.420000X-0.420000X0.420000X-0.420000X0*%
%ADD20C,0.940000*%
%ADD21O,0.950000X1.950000*%
%ADD22C,1.200000*%
%ADD23RoundRect,0.050000X-1.015000X-0.865000X1.015000X-0.865000X1.015000X0.865000X-1.015000X0.865000X0*%
%ADD24O,2.130000X1.830000*%
%ADD25RoundRect,0.050000X0.850000X0.850000X-0.850000X0.850000X-0.850000X-0.850000X0.850000X-0.850000X0*%
G04 APERTURE END LIST*
D10*
X20000000Y-90000000D02*
X115000000Y-90000000D01*
X115000000Y-90000000D02*
X115000000Y-25000000D01*
X115000000Y-25000000D02*
X20000000Y-25000000D01*
X20000000Y-25000000D02*
X20000000Y-90000000D01*
X20000000Y-90000000D02*
X115000000Y-90000000D01*
X115000000Y-90000000D02*
X115000000Y-25000000D01*
X115000000Y-25000000D02*
X20000000Y-25000000D01*
X20000000Y-25000000D02*
X20000000Y-90000000D01*
D11*
%TO.C,U7*%
X36927701Y-47830000D03*
X68927701Y-64050000D03*
D12*
X36827701Y-43950000D03*
X39367701Y-43950000D03*
X41907701Y-43950000D03*
X44447701Y-43950000D03*
X46987701Y-43950000D03*
X49527701Y-43950000D03*
X52067701Y-43950000D03*
%TD*%
D13*
%TO.C,H4*%
X111000000Y-29000000D03*
%TD*%
D14*
%TO.C,J2*%
X112287500Y-59900000D03*
D15*
X109747500Y-59900000D03*
%TD*%
D16*
%TO.C,J6*%
X111350000Y-43810000D03*
X111350000Y-41270000D03*
X111350000Y-38730000D03*
X111350000Y-36190000D03*
%TD*%
D13*
%TO.C,H3*%
X111000000Y-86000000D03*
%TD*%
D17*
%TO.C,J4*%
X76270000Y-45900000D03*
D15*
X76270000Y-43360000D03*
X78810000Y-45900000D03*
X78810000Y-43360000D03*
X81350000Y-45900000D03*
X81350000Y-43360000D03*
X83890000Y-45900000D03*
X83890000Y-43360000D03*
X86430000Y-45900000D03*
X86430000Y-43360000D03*
%TD*%
D13*
%TO.C,H1*%
X24000000Y-86000000D03*
%TD*%
D18*
%TO.C,C6*%
X64750000Y-34200000D03*
D16*
X64750000Y-39200000D03*
%TD*%
%TO.C,J5*%
X23650000Y-36190000D03*
X23650000Y-38730000D03*
X23650000Y-41270000D03*
X23650000Y-43810000D03*
%TD*%
%TO.C,J9*%
X82800000Y-86650000D03*
X85340000Y-86650000D03*
X87880000Y-86650000D03*
X90420000Y-86650000D03*
%TD*%
%TO.C,J10*%
X44700000Y-86650000D03*
X47240000Y-86650000D03*
X49780000Y-86650000D03*
X52320000Y-86650000D03*
%TD*%
%TO.C,J8*%
X95500000Y-86650000D03*
X98040000Y-86650000D03*
X100580000Y-86650000D03*
X103120000Y-86650000D03*
%TD*%
D19*
%TO.C,J7*%
X28825000Y-73420000D03*
D20*
X28175000Y-72420000D03*
X27525000Y-73420000D03*
X26875000Y-72420000D03*
X26225000Y-73420000D03*
D21*
X23950000Y-73200000D03*
X31100000Y-73200000D03*
%TD*%
D22*
%TO.C,J1*%
X113960000Y-74080000D03*
D23*
X111800000Y-69000000D03*
D24*
X111800000Y-71540000D03*
X111800000Y-74080000D03*
X111800000Y-76620000D03*
%TD*%
D16*
%TO.C,J12*%
X70100000Y-86650000D03*
X72640000Y-86650000D03*
X75180000Y-86650000D03*
X77720000Y-86650000D03*
%TD*%
D13*
%TO.C,H2*%
X24000000Y-29000000D03*
%TD*%
D16*
%TO.C,J13*%
X57400000Y-86650000D03*
X59940000Y-86650000D03*
X62480000Y-86650000D03*
X65020000Y-86650000D03*
%TD*%
%TO.C,J11*%
X32000000Y-86650000D03*
X34540000Y-86650000D03*
X37080000Y-86650000D03*
X39620000Y-86650000D03*
%TD*%
D25*
%TO.C,J3*%
X101975000Y-75025000D03*
D15*
X101975000Y-72485000D03*
X101975000Y-69945000D03*
%TD*%
G36*
X28476015Y-72782304D02*
G01*
X28475664Y-72783491D01*
X28449061Y-72822199D01*
X28450645Y-72882680D01*
X28487488Y-72930693D01*
X28543516Y-72948090D01*
X28544874Y-72949559D01*
X28544281Y-72951469D01*
X28542923Y-72952000D01*
X28405199Y-72952000D01*
X28386645Y-72955691D01*
X28371087Y-72966087D01*
X28360691Y-72981645D01*
X28358504Y-72992638D01*
X28357185Y-72994142D01*
X28355223Y-72993752D01*
X28354556Y-72992483D01*
X28348099Y-72937931D01*
X28307032Y-72893506D01*
X28252366Y-72883003D01*
X28250853Y-72881694D01*
X28251231Y-72879730D01*
X28252217Y-72879109D01*
X28360861Y-72849489D01*
X28472970Y-72780654D01*
X28474969Y-72780600D01*
X28476015Y-72782304D01*
G37*
M02*
