%TF.GenerationSoftware,KiCad,Pcbnew,6.0.5-a6ca702e91~116~ubuntu20.04.1*%
%TF.CreationDate,2022-06-15T17:04:34-04:00*%
%TF.ProjectId,CAN-Acquisition-Module,43414e2d-4163-4717-9569-736974696f6e,rev?*%
%TF.SameCoordinates,Original*%
%TF.FileFunction,Soldermask,Top*%
%TF.FilePolarity,Negative*%
%FSLAX46Y46*%
G04 Gerber Fmt 4.6, Leading zero omitted, Abs format (unit mm)*
G04 Created by KiCad (PCBNEW 6.0.5-a6ca702e91~116~ubuntu20.04.1) date 2022-06-15 17:04:34*
%MOMM*%
%LPD*%
G01*
G04 APERTURE LIST*
G04 Aperture macros list*
%AMRoundRect*
0 Rectangle with rounded corners*
0 $1 Rounding radius*
0 $2 $3 $4 $5 $6 $7 $8 $9 X,Y pos of 4 corners*
0 Add a 4 corners polygon primitive as box body*
4,1,4,$2,$3,$4,$5,$6,$7,$8,$9,$2,$3,0*
0 Add four circle primitives for the rounded corners*
1,1,$1+$1,$2,$3*
1,1,$1+$1,$4,$5*
1,1,$1+$1,$6,$7*
1,1,$1+$1,$8,$9*
0 Add four rect primitives between the rounded corners*
20,1,$1+$1,$2,$3,$4,$5,0*
20,1,$1+$1,$4,$5,$6,$7,0*
20,1,$1+$1,$6,$7,$8,$9,0*
20,1,$1+$1,$8,$9,$2,$3,0*%
%AMFreePoly0*
4,1,14,0.535355,0.885355,0.550000,0.850000,0.550000,-0.850000,0.535355,-0.885355,0.500000,-0.900000,-0.500000,-0.900000,-0.535355,-0.885355,-0.550000,-0.850000,-0.550000,0.550000,-0.535355,0.585355,-0.235355,0.885355,-0.200000,0.900000,0.500000,0.900000,0.535355,0.885355,0.535355,0.885355,$1*%
G04 Aperture macros list end*
%TA.AperFunction,Profile*%
%ADD10C,0.100000*%
%TD*%
%ADD11C,0.400000*%
%ADD12RoundRect,0.300000X-0.325000X-0.650000X0.325000X-0.650000X0.325000X0.650000X-0.325000X0.650000X0*%
%ADD13RoundRect,0.250000X-0.200000X-0.275000X0.200000X-0.275000X0.200000X0.275000X-0.200000X0.275000X0*%
%ADD14RoundRect,0.190000X-0.140000X-0.170000X0.140000X-0.170000X0.140000X0.170000X-0.140000X0.170000X0*%
%ADD15RoundRect,0.250000X-0.275000X0.200000X-0.275000X-0.200000X0.275000X-0.200000X0.275000X0.200000X0*%
%ADD16C,1.900000*%
%ADD17C,1.624000*%
%ADD18RoundRect,0.250000X0.200000X0.275000X-0.200000X0.275000X-0.200000X-0.275000X0.200000X-0.275000X0*%
%ADD19RoundRect,0.190000X0.170000X-0.140000X0.170000X0.140000X-0.170000X0.140000X-0.170000X-0.140000X0*%
%ADD20RoundRect,0.190000X0.140000X0.170000X-0.140000X0.170000X-0.140000X-0.170000X0.140000X-0.170000X0*%
%ADD21RoundRect,0.250000X0.275000X-0.200000X0.275000X0.200000X-0.275000X0.200000X-0.275000X-0.200000X0*%
%ADD22RoundRect,0.200000X0.150000X-0.587500X0.150000X0.587500X-0.150000X0.587500X-0.150000X-0.587500X0*%
%ADD23RoundRect,0.275000X-0.225000X-0.250000X0.225000X-0.250000X0.225000X0.250000X-0.225000X0.250000X0*%
%ADD24RoundRect,0.300000X-0.312500X-0.625000X0.312500X-0.625000X0.312500X0.625000X-0.312500X0.625000X0*%
%ADD25RoundRect,0.200000X-0.150000X0.587500X-0.150000X-0.587500X0.150000X-0.587500X0.150000X0.587500X0*%
%ADD26RoundRect,0.200000X0.587500X0.150000X-0.587500X0.150000X-0.587500X-0.150000X0.587500X-0.150000X0*%
%ADD27RoundRect,0.300000X0.250000X0.475000X-0.250000X0.475000X-0.250000X-0.475000X0.250000X-0.475000X0*%
%ADD28C,3.300000*%
%ADD29RoundRect,0.275000X0.225000X0.250000X-0.225000X0.250000X-0.225000X-0.250000X0.225000X-0.250000X0*%
%ADD30RoundRect,0.300000X0.375000X0.625000X-0.375000X0.625000X-0.375000X-0.625000X0.375000X-0.625000X0*%
%ADD31RoundRect,0.275000X0.250000X-0.225000X0.250000X0.225000X-0.250000X0.225000X-0.250000X-0.225000X0*%
%ADD32RoundRect,0.300000X0.325000X0.650000X-0.325000X0.650000X-0.325000X-0.650000X0.325000X-0.650000X0*%
%ADD33RoundRect,0.050000X-0.850000X0.850000X-0.850000X-0.850000X0.850000X-0.850000X0.850000X0.850000X0*%
%ADD34O,1.800000X1.800000*%
%ADD35C,2.100000*%
%ADD36RoundRect,0.300000X-0.475000X0.250000X-0.475000X-0.250000X0.475000X-0.250000X0.475000X0.250000X0*%
%ADD37RoundRect,0.050000X-0.450000X0.400000X-0.450000X-0.400000X0.450000X-0.400000X0.450000X0.400000X0*%
%ADD38RoundRect,0.275000X-0.250000X0.225000X-0.250000X-0.225000X0.250000X-0.225000X0.250000X0.225000X0*%
%ADD39RoundRect,0.050000X0.275000X-0.150000X0.275000X0.150000X-0.275000X0.150000X-0.275000X-0.150000X0*%
%ADD40RoundRect,0.050000X0.700000X-0.800000X0.700000X0.800000X-0.700000X0.800000X-0.700000X-0.800000X0*%
%ADD41RoundRect,0.268750X-0.335876X-0.026517X-0.026517X-0.335876X0.335876X0.026517X0.026517X0.335876X0*%
%ADD42RoundRect,0.200000X-0.587500X-0.150000X0.587500X-0.150000X0.587500X0.150000X-0.587500X0.150000X0*%
%ADD43RoundRect,0.190000X-0.021213X0.219203X-0.219203X0.021213X0.021213X-0.219203X0.219203X-0.021213X0*%
%ADD44RoundRect,0.050000X0.850000X-0.850000X0.850000X0.850000X-0.850000X0.850000X-0.850000X-0.850000X0*%
%ADD45RoundRect,0.268750X0.256250X-0.218750X0.256250X0.218750X-0.256250X0.218750X-0.256250X-0.218750X0*%
%ADD46RoundRect,0.300000X0.475000X-0.250000X0.475000X0.250000X-0.475000X0.250000X-0.475000X-0.250000X0*%
%ADD47RoundRect,0.050000X-1.000000X1.000000X-1.000000X-1.000000X1.000000X-1.000000X1.000000X1.000000X0*%
%ADD48RoundRect,0.190000X-0.219203X-0.021213X-0.021213X-0.219203X0.219203X0.021213X0.021213X0.219203X0*%
%ADD49RoundRect,0.050000X-0.750000X-0.450000X0.750000X-0.450000X0.750000X0.450000X-0.750000X0.450000X0*%
%ADD50RoundRect,0.150000X0.637500X0.100000X-0.637500X0.100000X-0.637500X-0.100000X0.637500X-0.100000X0*%
%ADD51RoundRect,0.300000X0.450000X-0.262500X0.450000X0.262500X-0.450000X0.262500X-0.450000X-0.262500X0*%
%ADD52RoundRect,0.300000X-0.262500X-0.450000X0.262500X-0.450000X0.262500X0.450000X-0.262500X0.450000X0*%
%ADD53RoundRect,0.275000X-0.335876X-0.017678X-0.017678X-0.335876X0.335876X0.017678X0.017678X0.335876X0*%
%ADD54RoundRect,0.200000X-0.825000X-0.150000X0.825000X-0.150000X0.825000X0.150000X-0.825000X0.150000X0*%
%ADD55RoundRect,0.050000X0.420000X0.420000X-0.420000X0.420000X-0.420000X-0.420000X0.420000X-0.420000X0*%
%ADD56C,0.940000*%
%ADD57O,0.950000X1.950000*%
%ADD58RoundRect,0.300000X0.850000X-0.375000X0.850000X0.375000X-0.850000X0.375000X-0.850000X-0.375000X0*%
%ADD59RoundRect,0.268750X-0.218750X-0.256250X0.218750X-0.256250X0.218750X0.256250X-0.218750X0.256250X0*%
%ADD60RoundRect,0.300000X-0.650000X0.325000X-0.650000X-0.325000X0.650000X-0.325000X0.650000X0.325000X0*%
%ADD61RoundRect,0.200000X1.837500X0.150000X-1.837500X0.150000X-1.837500X-0.150000X1.837500X-0.150000X0*%
%ADD62RoundRect,0.300000X0.262500X0.450000X-0.262500X0.450000X-0.262500X-0.450000X0.262500X-0.450000X0*%
%ADD63C,1.200000*%
%ADD64RoundRect,0.050000X-1.015000X-0.865000X1.015000X-0.865000X1.015000X0.865000X-1.015000X0.865000X0*%
%ADD65O,2.130000X1.830000*%
%ADD66RoundRect,0.050000X1.000000X-0.250000X1.000000X0.250000X-1.000000X0.250000X-1.000000X-0.250000X0*%
%ADD67RoundRect,0.050000X0.275000X0.125000X-0.275000X0.125000X-0.275000X-0.125000X0.275000X-0.125000X0*%
%ADD68RoundRect,0.050000X-0.275000X-0.125000X0.275000X-0.125000X0.275000X0.125000X-0.275000X0.125000X0*%
%ADD69FreePoly0,180.000000*%
%ADD70RoundRect,0.300000X-0.312500X-1.450000X0.312500X-1.450000X0.312500X1.450000X-0.312500X1.450000X0*%
%ADD71RoundRect,0.050000X0.400000X0.450000X-0.400000X0.450000X-0.400000X-0.450000X0.400000X-0.450000X0*%
%ADD72RoundRect,0.190000X-0.170000X0.140000X-0.170000X-0.140000X0.170000X-0.140000X0.170000X0.140000X0*%
%ADD73RoundRect,0.050000X-0.600000X0.700000X-0.600000X-0.700000X0.600000X-0.700000X0.600000X0.700000X0*%
%ADD74RoundRect,0.268750X-0.256250X0.218750X-0.256250X-0.218750X0.256250X-0.218750X0.256250X0.218750X0*%
%ADD75RoundRect,0.050000X0.850000X0.850000X-0.850000X0.850000X-0.850000X-0.850000X0.850000X-0.850000X0*%
%ADD76RoundRect,0.190000X0.219203X0.021213X0.021213X0.219203X-0.219203X-0.021213X-0.021213X-0.219203X0*%
%ADD77RoundRect,0.112500X0.530330X-0.441942X-0.441942X0.530330X-0.530330X0.441942X0.441942X-0.530330X0*%
%ADD78RoundRect,0.112500X0.530330X0.441942X0.441942X0.530330X-0.530330X-0.441942X-0.441942X-0.530330X0*%
G04 APERTURE END LIST*
D10*
X20000000Y-90000000D02*
X115000000Y-90000000D01*
X115000000Y-90000000D02*
X115000000Y-25000000D01*
X115000000Y-25000000D02*
X20000000Y-25000000D01*
X20000000Y-25000000D02*
X20000000Y-90000000D01*
%TO.C,U10*%
D11*
X27600000Y-64700000D02*
G75*
G03*
X27600000Y-64700000I-200000J0D01*
G01*
X27600000Y-54700000D02*
G75*
G03*
X27600000Y-54700000I-200000J0D01*
G01*
X23000000Y-64700000D02*
G75*
G03*
X23000000Y-64700000I-200000J0D01*
G01*
X23000000Y-54700000D02*
G75*
G03*
X23000000Y-54700000I-200000J0D01*
G01*
D10*
X20000000Y-90000000D02*
X115000000Y-90000000D01*
X115000000Y-90000000D02*
X115000000Y-25000000D01*
X115000000Y-25000000D02*
X20000000Y-25000000D01*
X20000000Y-25000000D02*
X20000000Y-90000000D01*
D11*
X27600000Y-64700000D02*
G75*
G03*
X27600000Y-64700000I-200000J0D01*
G01*
X27600000Y-54700000D02*
G75*
G03*
X27600000Y-54700000I-200000J0D01*
G01*
X23000000Y-64700000D02*
G75*
G03*
X23000000Y-64700000I-200000J0D01*
G01*
X23000000Y-54700000D02*
G75*
G03*
X23000000Y-54700000I-200000J0D01*
G01*
%TD*%
D12*
%TO.C,C46*%
X90737500Y-75900000D03*
X93687500Y-75900000D03*
%TD*%
D13*
%TO.C,R50*%
X25525000Y-46300000D03*
X27175000Y-46300000D03*
%TD*%
D12*
%TO.C,C68*%
X58575000Y-75848400D03*
X61525000Y-75848400D03*
%TD*%
D13*
%TO.C,R78*%
X61775000Y-73800000D03*
X63425000Y-73800000D03*
%TD*%
D14*
%TO.C,C17*%
X71330000Y-62310000D03*
X72290000Y-62310000D03*
%TD*%
D15*
%TO.C,R62*%
X41450000Y-69475000D03*
X41450000Y-71125000D03*
%TD*%
D16*
%TO.C,U7*%
X36927701Y-47830000D03*
X68927701Y-64050000D03*
D17*
X36827701Y-43950000D03*
X39367701Y-43950000D03*
X41907701Y-43950000D03*
X44447701Y-43950000D03*
X46987701Y-43950000D03*
X49527701Y-43950000D03*
X52067701Y-43950000D03*
%TD*%
D13*
%TO.C,R34*%
X93975000Y-73900000D03*
X95625000Y-73900000D03*
%TD*%
D18*
%TO.C,R71*%
X55425000Y-75100000D03*
X53775000Y-75100000D03*
%TD*%
D19*
%TO.C,C54*%
X61600000Y-79780000D03*
X61600000Y-78820000D03*
%TD*%
D18*
%TO.C,R16*%
X80910000Y-50500000D03*
X79260000Y-50500000D03*
%TD*%
D20*
%TO.C,C62*%
X65680000Y-73350000D03*
X64720000Y-73350000D03*
%TD*%
D21*
%TO.C,R13*%
X90900000Y-53175000D03*
X90900000Y-51525000D03*
%TD*%
D15*
%TO.C,R80*%
X59400000Y-72175000D03*
X59400000Y-73825000D03*
%TD*%
D22*
%TO.C,D28*%
X58250000Y-82337500D03*
X60150000Y-82337500D03*
X59200000Y-80462500D03*
%TD*%
D13*
%TO.C,R58*%
X49565000Y-78555000D03*
X51215000Y-78555000D03*
%TD*%
D15*
%TO.C,R5*%
X106600000Y-78575000D03*
X106600000Y-80225000D03*
%TD*%
D19*
%TO.C,C53*%
X95212500Y-79780000D03*
X95212500Y-78820000D03*
%TD*%
D23*
%TO.C,C5*%
X109125000Y-66400000D03*
X110675000Y-66400000D03*
%TD*%
D24*
%TO.C,R17*%
X94037500Y-37000000D03*
X96962500Y-37000000D03*
%TD*%
D25*
%TO.C,D16*%
X89050000Y-80362500D03*
X87150000Y-80362500D03*
X88100000Y-82237500D03*
%TD*%
D26*
%TO.C,D19*%
X40675000Y-41750000D03*
X40675000Y-39850000D03*
X38800000Y-40800000D03*
%TD*%
D18*
%TO.C,R15*%
X87125000Y-48500000D03*
X85475000Y-48500000D03*
%TD*%
D27*
%TO.C,C12*%
X75000000Y-34850000D03*
X73100000Y-34850000D03*
%TD*%
D28*
%TO.C,H4*%
X111000000Y-29000000D03*
%TD*%
D15*
%TO.C,R61*%
X56850000Y-69525000D03*
X56850000Y-71175000D03*
%TD*%
D29*
%TO.C,C19*%
X74775000Y-66800000D03*
X73225000Y-66800000D03*
%TD*%
D26*
%TO.C,D20*%
X44575000Y-41750000D03*
X44575000Y-39850000D03*
X42700000Y-40800000D03*
%TD*%
D30*
%TO.C,F1*%
X30650000Y-39550000D03*
X27850000Y-39550000D03*
%TD*%
D25*
%TO.C,D25*%
X75750000Y-80362500D03*
X73850000Y-80362500D03*
X74800000Y-82237500D03*
%TD*%
D31*
%TO.C,C36*%
X83600000Y-36775000D03*
X83600000Y-35225000D03*
%TD*%
D32*
%TO.C,C66*%
X66325000Y-75950000D03*
X63375000Y-75950000D03*
%TD*%
D33*
%TO.C,J2*%
X112287500Y-59900000D03*
D34*
X109747500Y-59900000D03*
%TD*%
D27*
%TO.C,C13*%
X78450000Y-38910000D03*
X76550000Y-38910000D03*
%TD*%
D35*
%TO.C,J6*%
X111350000Y-43810000D03*
X111350000Y-41270000D03*
X111350000Y-38730000D03*
X111350000Y-36190000D03*
%TD*%
D29*
%TO.C,C55*%
X54185000Y-76985000D03*
X52635000Y-76985000D03*
%TD*%
D31*
%TO.C,C39*%
X95700000Y-42125000D03*
X95700000Y-40575000D03*
%TD*%
D19*
%TO.C,C63*%
X72400000Y-79780000D03*
X72400000Y-78820000D03*
%TD*%
D23*
%TO.C,C58*%
X39025000Y-76900000D03*
X40575000Y-76900000D03*
%TD*%
D14*
%TO.C,C20*%
X86550000Y-61160000D03*
X87510000Y-61160000D03*
%TD*%
D36*
%TO.C,C1*%
X78450000Y-74650000D03*
X78450000Y-76550000D03*
%TD*%
D37*
%TO.C,D1*%
X32800000Y-37300000D03*
X32800000Y-39600000D03*
%TD*%
D38*
%TO.C,C59*%
X34350000Y-60925000D03*
X34350000Y-62475000D03*
%TD*%
D31*
%TO.C,C38*%
X92300000Y-41650000D03*
X92300000Y-40100000D03*
%TD*%
D26*
%TO.C,D11*%
X24175000Y-70350000D03*
X24175000Y-68450000D03*
X22300000Y-69400000D03*
%TD*%
D15*
%TO.C,R14*%
X105400000Y-47225000D03*
X105400000Y-48875000D03*
%TD*%
D39*
%TO.C,U2*%
X70872500Y-37470000D03*
X70872500Y-37970000D03*
X70872500Y-38470000D03*
X70872500Y-38970000D03*
X73622500Y-38970000D03*
X73622500Y-38470000D03*
X73622500Y-37970000D03*
X73622500Y-37470000D03*
D40*
X72247500Y-38220000D03*
%TD*%
D19*
%TO.C,C43*%
X51250000Y-82855000D03*
X51250000Y-81895000D03*
%TD*%
D41*
%TO.C,L5*%
X73693153Y-62843153D03*
X74806847Y-63956847D03*
%TD*%
D22*
%TO.C,D23*%
X48060000Y-82302500D03*
X49960000Y-82302500D03*
X49010000Y-80427500D03*
%TD*%
D42*
%TO.C,D14*%
X32187250Y-76055250D03*
X32187250Y-77955250D03*
X34062250Y-77005250D03*
%TD*%
D25*
%TO.C,D3*%
X35450000Y-33462500D03*
X33550000Y-33462500D03*
X34500000Y-35337500D03*
%TD*%
D22*
%TO.C,D18*%
X81650000Y-82137500D03*
X83550000Y-82137500D03*
X82600000Y-80262500D03*
%TD*%
D13*
%TO.C,R81*%
X66875000Y-73822600D03*
X68525000Y-73822600D03*
%TD*%
D28*
%TO.C,H3*%
X111000000Y-86000000D03*
%TD*%
D43*
%TO.C,C21*%
X76839411Y-62360589D03*
X76160589Y-63039411D03*
%TD*%
D19*
%TO.C,C64*%
X85200000Y-79880000D03*
X85200000Y-78920000D03*
%TD*%
D44*
%TO.C,J4*%
X76270000Y-45900000D03*
D34*
X76270000Y-43360000D03*
X78810000Y-45900000D03*
X78810000Y-43360000D03*
X81350000Y-45900000D03*
X81350000Y-43360000D03*
X83890000Y-45900000D03*
X83890000Y-43360000D03*
X86430000Y-45900000D03*
X86430000Y-43360000D03*
%TD*%
D23*
%TO.C,C33*%
X98525000Y-35800000D03*
X100075000Y-35800000D03*
%TD*%
D18*
%TO.C,R51*%
X25625000Y-51200000D03*
X23975000Y-51200000D03*
%TD*%
D21*
%TO.C,R60*%
X56850000Y-74625000D03*
X56850000Y-72975000D03*
%TD*%
%TO.C,R52*%
X48110000Y-78470000D03*
X48110000Y-76820000D03*
%TD*%
D45*
%TO.C,L6*%
X22185000Y-74107500D03*
X22185000Y-72532500D03*
%TD*%
D25*
%TO.C,D5*%
X107150000Y-67862500D03*
X105250000Y-67862500D03*
X106200000Y-69737500D03*
%TD*%
D18*
%TO.C,R68*%
X55425000Y-69300000D03*
X53775000Y-69300000D03*
%TD*%
D13*
%TO.C,R10*%
X22530000Y-76400000D03*
X24180000Y-76400000D03*
%TD*%
D20*
%TO.C,C41*%
X88130000Y-67000000D03*
X87170000Y-67000000D03*
%TD*%
D31*
%TO.C,C34*%
X106250000Y-41275000D03*
X106250000Y-39725000D03*
%TD*%
D46*
%TO.C,C2*%
X78500000Y-80100000D03*
X78500000Y-78200000D03*
%TD*%
D28*
%TO.C,H1*%
X24000000Y-86000000D03*
%TD*%
D26*
%TO.C,D12*%
X34897500Y-70850000D03*
X34897500Y-68950000D03*
X33022500Y-69900000D03*
%TD*%
D47*
%TO.C,C6*%
X64750000Y-34200000D03*
D35*
X64750000Y-39200000D03*
%TD*%
%TO.C,J5*%
X23650000Y-36190000D03*
X23650000Y-38730000D03*
X23650000Y-41270000D03*
X23650000Y-43810000D03*
%TD*%
D13*
%TO.C,R26*%
X29412500Y-70330000D03*
X31062500Y-70330000D03*
%TD*%
D19*
%TO.C,C37*%
X84800000Y-36480000D03*
X84800000Y-35520000D03*
%TD*%
D13*
%TO.C,R65*%
X53775000Y-70800000D03*
X55425000Y-70800000D03*
%TD*%
D48*
%TO.C,C25*%
X74560589Y-59860589D03*
X75239411Y-60539411D03*
%TD*%
D31*
%TO.C,C9*%
X75050000Y-39975000D03*
X75050000Y-38425000D03*
%TD*%
D35*
%TO.C,J9*%
X82800000Y-86650000D03*
X85340000Y-86650000D03*
X87880000Y-86650000D03*
X90420000Y-86650000D03*
%TD*%
D25*
%TO.C,D26*%
X64950000Y-80462500D03*
X63050000Y-80462500D03*
X64000000Y-82337500D03*
%TD*%
D21*
%TO.C,R73*%
X34250000Y-56025000D03*
X34250000Y-54375000D03*
%TD*%
D15*
%TO.C,R25*%
X95700000Y-43545000D03*
X95700000Y-45195000D03*
%TD*%
D35*
%TO.C,J10*%
X44700000Y-86650000D03*
X47240000Y-86650000D03*
X49780000Y-86650000D03*
X52320000Y-86650000D03*
%TD*%
D13*
%TO.C,R40*%
X49375000Y-41750000D03*
X51025000Y-41750000D03*
%TD*%
D49*
%TO.C,D7*%
X27150000Y-78240000D03*
X27150000Y-79640000D03*
X24050000Y-78240000D03*
X24050000Y-79640000D03*
%TD*%
D50*
%TO.C,U11*%
X67962500Y-72050000D03*
X67962500Y-71400000D03*
X67962500Y-70750000D03*
X67962500Y-70100000D03*
X67962500Y-69450000D03*
X67962500Y-68800000D03*
X67962500Y-68150000D03*
X62237500Y-68150000D03*
X62237500Y-68800000D03*
X62237500Y-69450000D03*
X62237500Y-70100000D03*
X62237500Y-70750000D03*
X62237500Y-71400000D03*
X62237500Y-72050000D03*
%TD*%
D23*
%TO.C,C8*%
X70085000Y-36400000D03*
X71635000Y-36400000D03*
%TD*%
D15*
%TO.C,R6*%
X107100000Y-71575000D03*
X107100000Y-73225000D03*
%TD*%
D51*
%TO.C,R1*%
X77850000Y-70312500D03*
X77850000Y-68487500D03*
%TD*%
D38*
%TO.C,C35*%
X106250000Y-36675000D03*
X106250000Y-38225000D03*
%TD*%
D52*
%TO.C,R75*%
X63187500Y-78251600D03*
X65012500Y-78251600D03*
%TD*%
D50*
%TO.C,U6*%
X90262500Y-72250000D03*
X90262500Y-71600000D03*
X90262500Y-70950000D03*
X90262500Y-70300000D03*
X90262500Y-69650000D03*
X90262500Y-69000000D03*
X90262500Y-68350000D03*
X84537500Y-68350000D03*
X84537500Y-69000000D03*
X84537500Y-69650000D03*
X84537500Y-70300000D03*
X84537500Y-70950000D03*
X84537500Y-71600000D03*
X84537500Y-72250000D03*
%TD*%
D36*
%TO.C,C48*%
X32900000Y-43750000D03*
X32900000Y-45650000D03*
%TD*%
D52*
%TO.C,R74*%
X73887500Y-78200000D03*
X75712500Y-78200000D03*
%TD*%
D13*
%TO.C,R7*%
X96575000Y-61100000D03*
X98225000Y-61100000D03*
%TD*%
D53*
%TO.C,C23*%
X73401992Y-60401992D03*
X74498008Y-61498008D03*
%TD*%
D20*
%TO.C,C14*%
X73730000Y-36300000D03*
X72770000Y-36300000D03*
%TD*%
D42*
%TO.C,D10*%
X102362500Y-37550000D03*
X102362500Y-39450000D03*
X104237500Y-38500000D03*
%TD*%
D54*
%TO.C,U5*%
X86525000Y-34095000D03*
X86525000Y-35365000D03*
X86525000Y-36635000D03*
X86525000Y-37905000D03*
X91475000Y-37905000D03*
X91475000Y-36635000D03*
X91475000Y-35365000D03*
X91475000Y-34095000D03*
%TD*%
D35*
%TO.C,J8*%
X95500000Y-86650000D03*
X98040000Y-86650000D03*
X100580000Y-86650000D03*
X103120000Y-86650000D03*
%TD*%
D21*
%TO.C,R63*%
X41450000Y-74725000D03*
X41450000Y-73075000D03*
%TD*%
D13*
%TO.C,R70*%
X42925000Y-75000000D03*
X44575000Y-75000000D03*
%TD*%
D15*
%TO.C,R22*%
X92300000Y-43050000D03*
X92300000Y-44700000D03*
%TD*%
D21*
%TO.C,R46*%
X34650000Y-50825000D03*
X34650000Y-49175000D03*
%TD*%
D55*
%TO.C,J7*%
X28825000Y-73420000D03*
D56*
X28175000Y-72420000D03*
X27525000Y-73420000D03*
X26875000Y-72420000D03*
X26225000Y-73420000D03*
D57*
X23950000Y-73200000D03*
X31100000Y-73200000D03*
%TD*%
D32*
%TO.C,C45*%
X88475000Y-75950000D03*
X85525000Y-75950000D03*
%TD*%
D58*
%TO.C,L3*%
X77180000Y-37035000D03*
X77180000Y-34885000D03*
%TD*%
D42*
%TO.C,U1*%
X73912500Y-68450000D03*
X73912500Y-70350000D03*
X75787500Y-69400000D03*
%TD*%
D59*
%TO.C,L1*%
X76262500Y-66800000D03*
X77837500Y-66800000D03*
%TD*%
D60*
%TO.C,C3*%
X37800000Y-33325000D03*
X37800000Y-36275000D03*
%TD*%
D48*
%TO.C,C26*%
X77635589Y-62885589D03*
X78314411Y-63564411D03*
%TD*%
D61*
%TO.C,U4*%
X102387500Y-51605000D03*
X102387500Y-50335000D03*
X102387500Y-49065000D03*
X102387500Y-47795000D03*
X93912500Y-47795000D03*
X93912500Y-49065000D03*
X93912500Y-50335000D03*
X93912500Y-51605000D03*
%TD*%
D12*
%TO.C,C47*%
X80625000Y-75950000D03*
X83575000Y-75950000D03*
%TD*%
D62*
%TO.C,R32*%
X83512500Y-78200000D03*
X81687500Y-78200000D03*
%TD*%
D15*
%TO.C,R35*%
X81600000Y-72275000D03*
X81600000Y-73925000D03*
%TD*%
D63*
%TO.C,J1*%
X113960000Y-74080000D03*
D64*
X111800000Y-69000000D03*
D65*
X111800000Y-71540000D03*
X111800000Y-74080000D03*
X111800000Y-76620000D03*
%TD*%
D66*
%TO.C,U10*%
X25100000Y-55700000D03*
X25100000Y-56700000D03*
X25100000Y-57700000D03*
X25100000Y-58700000D03*
X25100000Y-59700000D03*
X25100000Y-60700000D03*
X25100000Y-61700000D03*
X25100000Y-62700000D03*
X25100000Y-63700000D03*
%TD*%
D18*
%TO.C,R2*%
X76400000Y-71900000D03*
X74750000Y-71900000D03*
%TD*%
%TO.C,R48*%
X33225000Y-50800000D03*
X31575000Y-50800000D03*
%TD*%
D52*
%TO.C,R29*%
X96600000Y-78200000D03*
X98425000Y-78200000D03*
%TD*%
D18*
%TO.C,R3*%
X73325000Y-71900000D03*
X71675000Y-71900000D03*
%TD*%
%TO.C,R36*%
X92137500Y-73850000D03*
X90487500Y-73850000D03*
%TD*%
D13*
%TO.C,R33*%
X86675000Y-73900000D03*
X88325000Y-73900000D03*
%TD*%
D38*
%TO.C,C30*%
X89900000Y-56925000D03*
X89900000Y-58475000D03*
%TD*%
D13*
%TO.C,R27*%
X32860000Y-74120000D03*
X34510000Y-74120000D03*
%TD*%
%TO.C,R79*%
X71675000Y-73900000D03*
X73325000Y-73900000D03*
%TD*%
D22*
%TO.C,D24*%
X37180000Y-82212500D03*
X39080000Y-82212500D03*
X38130000Y-80337500D03*
%TD*%
D15*
%TO.C,R45*%
X22150000Y-49725000D03*
X22150000Y-51375000D03*
%TD*%
D13*
%TO.C,R44*%
X26985000Y-47770000D03*
X28635000Y-47770000D03*
%TD*%
D18*
%TO.C,R37*%
X28625000Y-50750000D03*
X26975000Y-50750000D03*
%TD*%
%TO.C,R66*%
X44575000Y-70550000D03*
X42925000Y-70550000D03*
%TD*%
D50*
%TO.C,U9*%
X52042500Y-73750000D03*
X52042500Y-73100000D03*
X52042500Y-72450000D03*
X52042500Y-71800000D03*
X52042500Y-71150000D03*
X52042500Y-70500000D03*
X52042500Y-69850000D03*
X46317500Y-69850000D03*
X46317500Y-70500000D03*
X46317500Y-71150000D03*
X46317500Y-71800000D03*
X46317500Y-72450000D03*
X46317500Y-73100000D03*
X46317500Y-73750000D03*
%TD*%
D35*
%TO.C,J12*%
X70100000Y-86650000D03*
X72640000Y-86650000D03*
X75180000Y-86650000D03*
X77720000Y-86650000D03*
%TD*%
D25*
%TO.C,D15*%
X99562500Y-80362500D03*
X97662500Y-80362500D03*
X98612500Y-82237500D03*
%TD*%
D21*
%TO.C,R19*%
X90780000Y-44700000D03*
X90780000Y-43050000D03*
%TD*%
D28*
%TO.C,H2*%
X24000000Y-29000000D03*
%TD*%
D14*
%TO.C,C50*%
X23400000Y-46900000D03*
X24360000Y-46900000D03*
%TD*%
D32*
%TO.C,C10*%
X112700000Y-53700000D03*
X109750000Y-53700000D03*
%TD*%
D48*
%TO.C,C28*%
X85910589Y-53810589D03*
X86589411Y-54489411D03*
%TD*%
D13*
%TO.C,R64*%
X53775000Y-73500000D03*
X55425000Y-73500000D03*
%TD*%
D25*
%TO.C,D4*%
X107150000Y-74962500D03*
X105250000Y-74962500D03*
X106200000Y-76837500D03*
%TD*%
D18*
%TO.C,R67*%
X44575000Y-73450000D03*
X42925000Y-73450000D03*
%TD*%
D43*
%TO.C,C22*%
X75389411Y-58060589D03*
X74710589Y-58739411D03*
%TD*%
D29*
%TO.C,C61*%
X65875000Y-66550000D03*
X64325000Y-66550000D03*
%TD*%
D32*
%TO.C,C65*%
X75975000Y-75990000D03*
X73025000Y-75990000D03*
%TD*%
D13*
%TO.C,R69*%
X42925000Y-69000000D03*
X44575000Y-69000000D03*
%TD*%
D35*
%TO.C,J13*%
X57400000Y-86650000D03*
X59940000Y-86650000D03*
X62480000Y-86650000D03*
X65020000Y-86650000D03*
%TD*%
D18*
%TO.C,R57*%
X43725000Y-78450000D03*
X42075000Y-78450000D03*
%TD*%
D15*
%TO.C,R72*%
X34350000Y-63975000D03*
X34350000Y-65625000D03*
%TD*%
D29*
%TO.C,C51*%
X49945000Y-67300000D03*
X48395000Y-67300000D03*
%TD*%
D67*
%TO.C,U8*%
X25775000Y-49650000D03*
X25775000Y-49150000D03*
X25775000Y-48650000D03*
D68*
X25775000Y-48150000D03*
D67*
X23425000Y-48150000D03*
X23425000Y-48650000D03*
X23425000Y-49150000D03*
X23425000Y-49650000D03*
D69*
X24600000Y-48900000D03*
%TD*%
D15*
%TO.C,R12*%
X29000000Y-78015000D03*
X29000000Y-79665000D03*
%TD*%
%TO.C,R11*%
X22155000Y-77875000D03*
X22155000Y-79525000D03*
%TD*%
D21*
%TO.C,R23*%
X94200000Y-45195000D03*
X94200000Y-43545000D03*
%TD*%
D23*
%TO.C,C57*%
X49635000Y-76985000D03*
X51185000Y-76985000D03*
%TD*%
D70*
%TO.C,L2*%
X40362500Y-34500000D03*
X44637500Y-34500000D03*
%TD*%
D13*
%TO.C,R38*%
X26975000Y-49250000D03*
X28625000Y-49250000D03*
%TD*%
D15*
%TO.C,R39*%
X22150000Y-46725000D03*
X22150000Y-48375000D03*
%TD*%
D14*
%TO.C,C32*%
X93880000Y-53410000D03*
X94840000Y-53410000D03*
%TD*%
D15*
%TO.C,R21*%
X98560000Y-37245000D03*
X98560000Y-38895000D03*
%TD*%
D38*
%TO.C,C49*%
X34650000Y-43925000D03*
X34650000Y-45475000D03*
%TD*%
D15*
%TO.C,R49*%
X30150000Y-49225000D03*
X30150000Y-50875000D03*
%TD*%
D42*
%TO.C,Q1*%
X108837500Y-49750000D03*
X108837500Y-51650000D03*
X110712500Y-50700000D03*
%TD*%
D12*
%TO.C,C67*%
X68325000Y-75990000D03*
X71275000Y-75990000D03*
%TD*%
D21*
%TO.C,R20*%
X90780000Y-41700000D03*
X90780000Y-40050000D03*
%TD*%
D13*
%TO.C,R28*%
X32880000Y-72500000D03*
X34530000Y-72500000D03*
%TD*%
D29*
%TO.C,C40*%
X88475000Y-65750000D03*
X86925000Y-65750000D03*
%TD*%
D62*
%TO.C,R31*%
X93725000Y-78200000D03*
X91900000Y-78200000D03*
%TD*%
D18*
%TO.C,R56*%
X54245000Y-78545000D03*
X52595000Y-78545000D03*
%TD*%
D29*
%TO.C,C56*%
X43675000Y-76900000D03*
X42125000Y-76900000D03*
%TD*%
D22*
%TO.C,D9*%
X100850000Y-67062500D03*
X102750000Y-67062500D03*
X101800000Y-65187500D03*
%TD*%
D13*
%TO.C,R47*%
X31575000Y-48700000D03*
X33225000Y-48700000D03*
%TD*%
D27*
%TO.C,C31*%
X79335000Y-48750000D03*
X77435000Y-48750000D03*
%TD*%
D13*
%TO.C,R59*%
X38975000Y-78450000D03*
X40625000Y-78450000D03*
%TD*%
D21*
%TO.C,R24*%
X94190000Y-42175000D03*
X94190000Y-40525000D03*
%TD*%
D18*
%TO.C,R4*%
X107025000Y-66000000D03*
X105375000Y-66000000D03*
%TD*%
D71*
%TO.C,D2*%
X30150000Y-35400000D03*
X27850000Y-35400000D03*
%TD*%
D21*
%TO.C,R55*%
X45200000Y-78525000D03*
X45200000Y-76875000D03*
%TD*%
D71*
%TO.C,D6*%
X112862500Y-48200000D03*
X110562500Y-48200000D03*
%TD*%
D35*
%TO.C,J11*%
X32000000Y-86650000D03*
X34540000Y-86650000D03*
X37080000Y-86650000D03*
X39620000Y-86650000D03*
%TD*%
D18*
%TO.C,R43*%
X54075000Y-41750000D03*
X52425000Y-41750000D03*
%TD*%
%TO.C,R9*%
X69175000Y-38000000D03*
X67525000Y-38000000D03*
%TD*%
D21*
%TO.C,R54*%
X37500000Y-78525000D03*
X37500000Y-76875000D03*
%TD*%
D13*
%TO.C,R8*%
X67525000Y-39500000D03*
X69175000Y-39500000D03*
%TD*%
D38*
%TO.C,C27*%
X94900000Y-56925000D03*
X94900000Y-58475000D03*
%TD*%
D23*
%TO.C,C11*%
X67575000Y-41000000D03*
X69125000Y-41000000D03*
%TD*%
D12*
%TO.C,C7*%
X68565000Y-34500000D03*
X71515000Y-34500000D03*
%TD*%
D72*
%TO.C,C60*%
X33080000Y-60720000D03*
X33080000Y-61680000D03*
%TD*%
D73*
%TO.C,Y1*%
X91550000Y-56600000D03*
X91550000Y-58800000D03*
X93250000Y-58800000D03*
X93250000Y-56600000D03*
%TD*%
D32*
%TO.C,C44*%
X98487500Y-75900000D03*
X95537500Y-75900000D03*
%TD*%
D22*
%TO.C,D8*%
X101850000Y-79737500D03*
X103750000Y-79737500D03*
X102800000Y-77862500D03*
%TD*%
D19*
%TO.C,C42*%
X40450000Y-82230000D03*
X40450000Y-81270000D03*
%TD*%
D21*
%TO.C,R53*%
X55700000Y-78600000D03*
X55700000Y-76950000D03*
%TD*%
D74*
%TO.C,L4*%
X71870000Y-63582500D03*
X71870000Y-65157500D03*
%TD*%
D52*
%TO.C,R30*%
X86787500Y-78200000D03*
X88612500Y-78200000D03*
%TD*%
D75*
%TO.C,J3*%
X101975000Y-75025000D03*
D34*
X101975000Y-72485000D03*
X101975000Y-69945000D03*
%TD*%
D24*
%TO.C,R18*%
X94037500Y-34750000D03*
X96962500Y-34750000D03*
%TD*%
D25*
%TO.C,D21*%
X55210000Y-80447500D03*
X53310000Y-80447500D03*
X54260000Y-82322500D03*
%TD*%
D12*
%TO.C,C4*%
X109225000Y-64400000D03*
X112175000Y-64400000D03*
%TD*%
D62*
%TO.C,R77*%
X60212500Y-78200000D03*
X58387500Y-78200000D03*
%TD*%
D23*
%TO.C,C24*%
X77862500Y-71900000D03*
X79412500Y-71900000D03*
%TD*%
D20*
%TO.C,C52*%
X49630000Y-68520000D03*
X48670000Y-68520000D03*
%TD*%
D18*
%TO.C,R42*%
X57075000Y-41750000D03*
X55425000Y-41750000D03*
%TD*%
D29*
%TO.C,C15*%
X27230000Y-76400000D03*
X25680000Y-76400000D03*
%TD*%
D22*
%TO.C,D27*%
X68850000Y-82237500D03*
X70750000Y-82237500D03*
X69800000Y-80362500D03*
%TD*%
D25*
%TO.C,D22*%
X43720000Y-80297500D03*
X41820000Y-80297500D03*
X42770000Y-82172500D03*
%TD*%
D76*
%TO.C,C18*%
X83189411Y-52389411D03*
X82510589Y-51710589D03*
%TD*%
D53*
%TO.C,C29*%
X86651992Y-52801992D03*
X87748008Y-53898008D03*
%TD*%
D22*
%TO.C,D17*%
X91762500Y-82237500D03*
X93662500Y-82237500D03*
X92712500Y-80362500D03*
%TD*%
D48*
%TO.C,C16*%
X85610589Y-54860589D03*
X86289411Y-55539411D03*
%TD*%
D13*
%TO.C,R41*%
X46275000Y-41750000D03*
X47925000Y-41750000D03*
%TD*%
D77*
%TO.C,U3*%
X81930850Y-63423491D03*
X82213693Y-63140648D03*
X82496536Y-62857806D03*
X82779379Y-62574963D03*
X83062221Y-62292120D03*
X83345064Y-62009278D03*
X83627907Y-61726435D03*
X83910749Y-61443592D03*
X84193592Y-61160749D03*
X84476435Y-60877907D03*
X84759278Y-60595064D03*
X85042120Y-60312221D03*
X85324963Y-60029379D03*
X85607806Y-59746536D03*
X85890648Y-59463693D03*
X86173491Y-59180850D03*
D78*
X86173491Y-57519150D03*
X85890648Y-57236307D03*
X85607806Y-56953464D03*
X85324963Y-56670621D03*
X85042120Y-56387779D03*
X84759278Y-56104936D03*
X84476435Y-55822093D03*
X84193592Y-55539251D03*
X83910749Y-55256408D03*
X83627907Y-54973565D03*
X83345064Y-54690722D03*
X83062221Y-54407880D03*
X82779379Y-54125037D03*
X82496536Y-53842194D03*
X82213693Y-53559352D03*
X81930850Y-53276509D03*
D77*
X80269150Y-53276509D03*
X79986307Y-53559352D03*
X79703464Y-53842194D03*
X79420621Y-54125037D03*
X79137779Y-54407880D03*
X78854936Y-54690722D03*
X78572093Y-54973565D03*
X78289251Y-55256408D03*
X78006408Y-55539251D03*
X77723565Y-55822093D03*
X77440722Y-56104936D03*
X77157880Y-56387779D03*
X76875037Y-56670621D03*
X76592194Y-56953464D03*
X76309352Y-57236307D03*
X76026509Y-57519150D03*
D78*
X76026509Y-59180850D03*
X76309352Y-59463693D03*
X76592194Y-59746536D03*
X76875037Y-60029379D03*
X77157880Y-60312221D03*
X77440722Y-60595064D03*
X77723565Y-60877907D03*
X78006408Y-61160749D03*
X78289251Y-61443592D03*
X78572093Y-61726435D03*
X78854936Y-62009278D03*
X79137779Y-62292120D03*
X79420621Y-62574963D03*
X79703464Y-62857806D03*
X79986307Y-63140648D03*
X80269150Y-63423491D03*
%TD*%
D62*
%TO.C,R76*%
X71112500Y-78240000D03*
X69287500Y-78240000D03*
%TD*%
D22*
%TO.C,D13*%
X25987500Y-70137500D03*
X27887500Y-70137500D03*
X26937500Y-68262500D03*
%TD*%
G36*
X47008982Y-73338243D02*
G01*
X47009372Y-73340205D01*
X47008589Y-73341225D01*
X47005422Y-73343341D01*
X46967757Y-73391117D01*
X46965382Y-73451572D01*
X46999159Y-73502124D01*
X47005184Y-73506500D01*
X47008589Y-73508775D01*
X47009474Y-73510569D01*
X47008363Y-73512232D01*
X47007088Y-73512400D01*
X46954801Y-73502000D01*
X45680199Y-73502000D01*
X45627912Y-73512400D01*
X45626018Y-73511757D01*
X45625628Y-73509795D01*
X45626411Y-73508775D01*
X45629578Y-73506659D01*
X45667243Y-73458883D01*
X45669618Y-73398428D01*
X45635841Y-73347876D01*
X45629816Y-73343500D01*
X45626411Y-73341225D01*
X45625526Y-73339431D01*
X45626637Y-73337768D01*
X45627912Y-73337600D01*
X45680199Y-73348000D01*
X46954801Y-73348000D01*
X47007088Y-73337600D01*
X47008982Y-73338243D01*
G37*
G36*
X52733982Y-73338243D02*
G01*
X52734372Y-73340205D01*
X52733589Y-73341225D01*
X52730422Y-73343341D01*
X52692757Y-73391117D01*
X52690382Y-73451572D01*
X52724159Y-73502124D01*
X52730184Y-73506500D01*
X52733589Y-73508775D01*
X52734474Y-73510569D01*
X52733363Y-73512232D01*
X52732088Y-73512400D01*
X52679801Y-73502000D01*
X51405199Y-73502000D01*
X51352912Y-73512400D01*
X51351018Y-73511757D01*
X51350628Y-73509795D01*
X51351411Y-73508775D01*
X51354578Y-73506659D01*
X51392243Y-73458883D01*
X51394618Y-73398428D01*
X51360841Y-73347876D01*
X51354816Y-73343500D01*
X51351411Y-73341225D01*
X51350526Y-73339431D01*
X51351637Y-73337768D01*
X51352912Y-73337600D01*
X51405199Y-73348000D01*
X52679801Y-73348000D01*
X52732088Y-73337600D01*
X52733982Y-73338243D01*
G37*
G36*
X28476015Y-72782304D02*
G01*
X28475664Y-72783491D01*
X28449061Y-72822199D01*
X28450645Y-72882680D01*
X28487488Y-72930693D01*
X28543516Y-72948090D01*
X28544874Y-72949559D01*
X28544281Y-72951469D01*
X28542923Y-72952000D01*
X28405199Y-72952000D01*
X28386645Y-72955691D01*
X28371087Y-72966087D01*
X28360691Y-72981645D01*
X28358504Y-72992638D01*
X28357185Y-72994142D01*
X28355223Y-72993752D01*
X28354556Y-72992483D01*
X28348099Y-72937931D01*
X28307032Y-72893506D01*
X28252366Y-72883003D01*
X28250853Y-72881694D01*
X28251231Y-72879730D01*
X28252217Y-72879109D01*
X28360861Y-72849489D01*
X28472970Y-72780654D01*
X28474969Y-72780600D01*
X28476015Y-72782304D01*
G37*
G36*
X52733982Y-72688243D02*
G01*
X52734372Y-72690205D01*
X52733589Y-72691225D01*
X52730422Y-72693341D01*
X52692757Y-72741117D01*
X52690382Y-72801572D01*
X52724159Y-72852124D01*
X52730184Y-72856500D01*
X52733589Y-72858775D01*
X52734474Y-72860569D01*
X52733363Y-72862232D01*
X52732088Y-72862400D01*
X52679801Y-72852000D01*
X51405199Y-72852000D01*
X51352912Y-72862400D01*
X51351018Y-72861757D01*
X51350628Y-72859795D01*
X51351411Y-72858775D01*
X51354578Y-72856659D01*
X51392243Y-72808883D01*
X51394618Y-72748428D01*
X51360841Y-72697876D01*
X51354816Y-72693500D01*
X51351411Y-72691225D01*
X51350526Y-72689431D01*
X51351637Y-72687768D01*
X51352912Y-72687600D01*
X51405199Y-72698000D01*
X52679801Y-72698000D01*
X52732088Y-72687600D01*
X52733982Y-72688243D01*
G37*
G36*
X47008982Y-72688243D02*
G01*
X47009372Y-72690205D01*
X47008589Y-72691225D01*
X47005422Y-72693341D01*
X46967757Y-72741117D01*
X46965382Y-72801572D01*
X46999159Y-72852124D01*
X47005184Y-72856500D01*
X47008589Y-72858775D01*
X47009474Y-72860569D01*
X47008363Y-72862232D01*
X47007088Y-72862400D01*
X46954801Y-72852000D01*
X45680199Y-72852000D01*
X45627912Y-72862400D01*
X45626018Y-72861757D01*
X45625628Y-72859795D01*
X45626411Y-72858775D01*
X45629578Y-72856659D01*
X45667243Y-72808883D01*
X45669618Y-72748428D01*
X45635841Y-72697876D01*
X45629816Y-72693500D01*
X45626411Y-72691225D01*
X45625526Y-72689431D01*
X45626637Y-72687768D01*
X45627912Y-72687600D01*
X45680199Y-72698000D01*
X46954801Y-72698000D01*
X47007088Y-72687600D01*
X47008982Y-72688243D01*
G37*
G36*
X52733982Y-72038243D02*
G01*
X52734372Y-72040205D01*
X52733589Y-72041225D01*
X52730422Y-72043341D01*
X52692757Y-72091117D01*
X52690382Y-72151572D01*
X52724159Y-72202124D01*
X52730184Y-72206500D01*
X52733589Y-72208775D01*
X52734474Y-72210569D01*
X52733363Y-72212232D01*
X52732088Y-72212400D01*
X52679801Y-72202000D01*
X51405199Y-72202000D01*
X51352912Y-72212400D01*
X51351018Y-72211757D01*
X51350628Y-72209795D01*
X51351411Y-72208775D01*
X51354578Y-72206659D01*
X51392243Y-72158883D01*
X51394618Y-72098428D01*
X51360841Y-72047876D01*
X51354816Y-72043500D01*
X51351411Y-72041225D01*
X51350526Y-72039431D01*
X51351637Y-72037768D01*
X51352912Y-72037600D01*
X51405199Y-72048000D01*
X52679801Y-72048000D01*
X52732088Y-72037600D01*
X52733982Y-72038243D01*
G37*
G36*
X47008982Y-72038243D02*
G01*
X47009372Y-72040205D01*
X47008589Y-72041225D01*
X47005422Y-72043341D01*
X46967757Y-72091117D01*
X46965382Y-72151572D01*
X46999159Y-72202124D01*
X47005184Y-72206500D01*
X47008589Y-72208775D01*
X47009474Y-72210569D01*
X47008363Y-72212232D01*
X47007088Y-72212400D01*
X46954801Y-72202000D01*
X45680199Y-72202000D01*
X45627912Y-72212400D01*
X45626018Y-72211757D01*
X45625628Y-72209795D01*
X45626411Y-72208775D01*
X45629578Y-72206659D01*
X45667243Y-72158883D01*
X45669618Y-72098428D01*
X45635841Y-72047876D01*
X45629816Y-72043500D01*
X45626411Y-72041225D01*
X45625526Y-72039431D01*
X45626637Y-72037768D01*
X45627912Y-72037600D01*
X45680199Y-72048000D01*
X46954801Y-72048000D01*
X47007088Y-72037600D01*
X47008982Y-72038243D01*
G37*
G36*
X90953982Y-71838243D02*
G01*
X90954372Y-71840205D01*
X90953589Y-71841225D01*
X90950422Y-71843341D01*
X90912757Y-71891117D01*
X90910382Y-71951572D01*
X90944159Y-72002124D01*
X90950184Y-72006500D01*
X90953589Y-72008775D01*
X90954474Y-72010569D01*
X90953363Y-72012232D01*
X90952088Y-72012400D01*
X90899801Y-72002000D01*
X89625199Y-72002000D01*
X89572912Y-72012400D01*
X89571018Y-72011757D01*
X89570628Y-72009795D01*
X89571411Y-72008775D01*
X89574578Y-72006659D01*
X89612243Y-71958883D01*
X89614618Y-71898428D01*
X89580841Y-71847876D01*
X89574816Y-71843500D01*
X89571411Y-71841225D01*
X89570526Y-71839431D01*
X89571637Y-71837768D01*
X89572912Y-71837600D01*
X89625199Y-71848000D01*
X90899801Y-71848000D01*
X90952088Y-71837600D01*
X90953982Y-71838243D01*
G37*
G36*
X85228982Y-71838243D02*
G01*
X85229372Y-71840205D01*
X85228589Y-71841225D01*
X85225422Y-71843341D01*
X85187757Y-71891117D01*
X85185382Y-71951572D01*
X85219159Y-72002124D01*
X85225184Y-72006500D01*
X85228589Y-72008775D01*
X85229474Y-72010569D01*
X85228363Y-72012232D01*
X85227088Y-72012400D01*
X85174801Y-72002000D01*
X83900199Y-72002000D01*
X83847912Y-72012400D01*
X83846018Y-72011757D01*
X83845628Y-72009795D01*
X83846411Y-72008775D01*
X83849578Y-72006659D01*
X83887243Y-71958883D01*
X83889618Y-71898428D01*
X83855841Y-71847876D01*
X83849816Y-71843500D01*
X83846411Y-71841225D01*
X83845526Y-71839431D01*
X83846637Y-71837768D01*
X83847912Y-71837600D01*
X83900199Y-71848000D01*
X85174801Y-71848000D01*
X85227088Y-71837600D01*
X85228982Y-71838243D01*
G37*
G36*
X68653982Y-71638243D02*
G01*
X68654372Y-71640205D01*
X68653589Y-71641225D01*
X68650422Y-71643341D01*
X68612757Y-71691117D01*
X68610382Y-71751572D01*
X68644159Y-71802124D01*
X68650184Y-71806500D01*
X68653589Y-71808775D01*
X68654474Y-71810569D01*
X68653363Y-71812232D01*
X68652088Y-71812400D01*
X68599801Y-71802000D01*
X67325199Y-71802000D01*
X67272912Y-71812400D01*
X67271018Y-71811757D01*
X67270628Y-71809795D01*
X67271411Y-71808775D01*
X67274578Y-71806659D01*
X67312243Y-71758883D01*
X67314618Y-71698428D01*
X67280841Y-71647876D01*
X67274816Y-71643500D01*
X67271411Y-71641225D01*
X67270526Y-71639431D01*
X67271637Y-71637768D01*
X67272912Y-71637600D01*
X67325199Y-71648000D01*
X68599801Y-71648000D01*
X68652088Y-71637600D01*
X68653982Y-71638243D01*
G37*
G36*
X62928982Y-71638243D02*
G01*
X62929372Y-71640205D01*
X62928589Y-71641225D01*
X62925422Y-71643341D01*
X62887757Y-71691117D01*
X62885382Y-71751572D01*
X62919159Y-71802124D01*
X62925184Y-71806500D01*
X62928589Y-71808775D01*
X62929474Y-71810569D01*
X62928363Y-71812232D01*
X62927088Y-71812400D01*
X62874801Y-71802000D01*
X61600199Y-71802000D01*
X61547912Y-71812400D01*
X61546018Y-71811757D01*
X61545628Y-71809795D01*
X61546411Y-71808775D01*
X61549578Y-71806659D01*
X61587243Y-71758883D01*
X61589618Y-71698428D01*
X61555841Y-71647876D01*
X61549816Y-71643500D01*
X61546411Y-71641225D01*
X61545526Y-71639431D01*
X61546637Y-71637768D01*
X61547912Y-71637600D01*
X61600199Y-71648000D01*
X62874801Y-71648000D01*
X62927088Y-71637600D01*
X62928982Y-71638243D01*
G37*
G36*
X52733982Y-71388243D02*
G01*
X52734372Y-71390205D01*
X52733589Y-71391225D01*
X52730422Y-71393341D01*
X52692757Y-71441117D01*
X52690382Y-71501572D01*
X52724159Y-71552124D01*
X52730184Y-71556500D01*
X52733589Y-71558775D01*
X52734474Y-71560569D01*
X52733363Y-71562232D01*
X52732088Y-71562400D01*
X52679801Y-71552000D01*
X51405199Y-71552000D01*
X51352912Y-71562400D01*
X51351018Y-71561757D01*
X51350628Y-71559795D01*
X51351411Y-71558775D01*
X51354578Y-71556659D01*
X51392243Y-71508883D01*
X51394618Y-71448428D01*
X51360841Y-71397876D01*
X51354816Y-71393500D01*
X51351411Y-71391225D01*
X51350526Y-71389431D01*
X51351637Y-71387768D01*
X51352912Y-71387600D01*
X51405199Y-71398000D01*
X52679801Y-71398000D01*
X52732088Y-71387600D01*
X52733982Y-71388243D01*
G37*
G36*
X47008982Y-71388243D02*
G01*
X47009372Y-71390205D01*
X47008589Y-71391225D01*
X47005422Y-71393341D01*
X46967757Y-71441117D01*
X46965382Y-71501572D01*
X46999159Y-71552124D01*
X47005184Y-71556500D01*
X47008589Y-71558775D01*
X47009474Y-71560569D01*
X47008363Y-71562232D01*
X47007088Y-71562400D01*
X46954801Y-71552000D01*
X45680199Y-71552000D01*
X45627912Y-71562400D01*
X45626018Y-71561757D01*
X45625628Y-71559795D01*
X45626411Y-71558775D01*
X45629578Y-71556659D01*
X45667243Y-71508883D01*
X45669618Y-71448428D01*
X45635841Y-71397876D01*
X45629816Y-71393500D01*
X45626411Y-71391225D01*
X45625526Y-71389431D01*
X45626637Y-71387768D01*
X45627912Y-71387600D01*
X45680199Y-71398000D01*
X46954801Y-71398000D01*
X47007088Y-71387600D01*
X47008982Y-71388243D01*
G37*
G36*
X90953982Y-71188243D02*
G01*
X90954372Y-71190205D01*
X90953589Y-71191225D01*
X90950422Y-71193341D01*
X90912757Y-71241117D01*
X90910382Y-71301572D01*
X90944159Y-71352124D01*
X90950184Y-71356500D01*
X90953589Y-71358775D01*
X90954474Y-71360569D01*
X90953363Y-71362232D01*
X90952088Y-71362400D01*
X90899801Y-71352000D01*
X89625199Y-71352000D01*
X89572912Y-71362400D01*
X89571018Y-71361757D01*
X89570628Y-71359795D01*
X89571411Y-71358775D01*
X89574578Y-71356659D01*
X89612243Y-71308883D01*
X89614618Y-71248428D01*
X89580841Y-71197876D01*
X89574816Y-71193500D01*
X89571411Y-71191225D01*
X89570526Y-71189431D01*
X89571637Y-71187768D01*
X89572912Y-71187600D01*
X89625199Y-71198000D01*
X90899801Y-71198000D01*
X90952088Y-71187600D01*
X90953982Y-71188243D01*
G37*
G36*
X85228982Y-71188243D02*
G01*
X85229372Y-71190205D01*
X85228589Y-71191225D01*
X85225422Y-71193341D01*
X85187757Y-71241117D01*
X85185382Y-71301572D01*
X85219159Y-71352124D01*
X85225184Y-71356500D01*
X85228589Y-71358775D01*
X85229474Y-71360569D01*
X85228363Y-71362232D01*
X85227088Y-71362400D01*
X85174801Y-71352000D01*
X83900199Y-71352000D01*
X83847912Y-71362400D01*
X83846018Y-71361757D01*
X83845628Y-71359795D01*
X83846411Y-71358775D01*
X83849578Y-71356659D01*
X83887243Y-71308883D01*
X83889618Y-71248428D01*
X83855841Y-71197876D01*
X83849816Y-71193500D01*
X83846411Y-71191225D01*
X83845526Y-71189431D01*
X83846637Y-71187768D01*
X83847912Y-71187600D01*
X83900199Y-71198000D01*
X85174801Y-71198000D01*
X85227088Y-71187600D01*
X85228982Y-71188243D01*
G37*
G36*
X68653982Y-70988243D02*
G01*
X68654372Y-70990205D01*
X68653589Y-70991225D01*
X68650422Y-70993341D01*
X68612757Y-71041117D01*
X68610382Y-71101572D01*
X68644159Y-71152124D01*
X68650184Y-71156500D01*
X68653589Y-71158775D01*
X68654474Y-71160569D01*
X68653363Y-71162232D01*
X68652088Y-71162400D01*
X68599801Y-71152000D01*
X67325199Y-71152000D01*
X67272912Y-71162400D01*
X67271018Y-71161757D01*
X67270628Y-71159795D01*
X67271411Y-71158775D01*
X67274578Y-71156659D01*
X67312243Y-71108883D01*
X67314618Y-71048428D01*
X67280841Y-70997876D01*
X67274816Y-70993500D01*
X67271411Y-70991225D01*
X67270526Y-70989431D01*
X67271637Y-70987768D01*
X67272912Y-70987600D01*
X67325199Y-70998000D01*
X68599801Y-70998000D01*
X68652088Y-70987600D01*
X68653982Y-70988243D01*
G37*
G36*
X62928982Y-70988243D02*
G01*
X62929372Y-70990205D01*
X62928589Y-70991225D01*
X62925422Y-70993341D01*
X62887757Y-71041117D01*
X62885382Y-71101572D01*
X62919159Y-71152124D01*
X62925184Y-71156500D01*
X62928589Y-71158775D01*
X62929474Y-71160569D01*
X62928363Y-71162232D01*
X62927088Y-71162400D01*
X62874801Y-71152000D01*
X61600199Y-71152000D01*
X61547912Y-71162400D01*
X61546018Y-71161757D01*
X61545628Y-71159795D01*
X61546411Y-71158775D01*
X61549578Y-71156659D01*
X61587243Y-71108883D01*
X61589618Y-71048428D01*
X61555841Y-70997876D01*
X61549816Y-70993500D01*
X61546411Y-70991225D01*
X61545526Y-70989431D01*
X61546637Y-70987768D01*
X61547912Y-70987600D01*
X61600199Y-70998000D01*
X62874801Y-70998000D01*
X62927088Y-70987600D01*
X62928982Y-70988243D01*
G37*
G36*
X52733982Y-70738243D02*
G01*
X52734372Y-70740205D01*
X52733589Y-70741225D01*
X52730422Y-70743341D01*
X52692757Y-70791117D01*
X52690382Y-70851572D01*
X52724159Y-70902124D01*
X52730184Y-70906500D01*
X52733589Y-70908775D01*
X52734474Y-70910569D01*
X52733363Y-70912232D01*
X52732088Y-70912400D01*
X52679801Y-70902000D01*
X51405199Y-70902000D01*
X51352912Y-70912400D01*
X51351018Y-70911757D01*
X51350628Y-70909795D01*
X51351411Y-70908775D01*
X51354578Y-70906659D01*
X51392243Y-70858883D01*
X51394618Y-70798428D01*
X51360841Y-70747876D01*
X51354816Y-70743500D01*
X51351411Y-70741225D01*
X51350526Y-70739431D01*
X51351637Y-70737768D01*
X51352912Y-70737600D01*
X51405199Y-70748000D01*
X52679801Y-70748000D01*
X52732088Y-70737600D01*
X52733982Y-70738243D01*
G37*
G36*
X47008982Y-70738243D02*
G01*
X47009372Y-70740205D01*
X47008589Y-70741225D01*
X47005422Y-70743341D01*
X46967757Y-70791117D01*
X46965382Y-70851572D01*
X46999159Y-70902124D01*
X47005184Y-70906500D01*
X47008589Y-70908775D01*
X47009474Y-70910569D01*
X47008363Y-70912232D01*
X47007088Y-70912400D01*
X46954801Y-70902000D01*
X45680199Y-70902000D01*
X45627912Y-70912400D01*
X45626018Y-70911757D01*
X45625628Y-70909795D01*
X45626411Y-70908775D01*
X45629578Y-70906659D01*
X45667243Y-70858883D01*
X45669618Y-70798428D01*
X45635841Y-70747876D01*
X45629816Y-70743500D01*
X45626411Y-70741225D01*
X45625526Y-70739431D01*
X45626637Y-70737768D01*
X45627912Y-70737600D01*
X45680199Y-70748000D01*
X46954801Y-70748000D01*
X47007088Y-70737600D01*
X47008982Y-70738243D01*
G37*
G36*
X85228982Y-70538243D02*
G01*
X85229372Y-70540205D01*
X85228589Y-70541225D01*
X85225422Y-70543341D01*
X85187757Y-70591117D01*
X85185382Y-70651572D01*
X85219159Y-70702124D01*
X85225184Y-70706500D01*
X85228589Y-70708775D01*
X85229474Y-70710569D01*
X85228363Y-70712232D01*
X85227088Y-70712400D01*
X85174801Y-70702000D01*
X83900199Y-70702000D01*
X83847912Y-70712400D01*
X83846018Y-70711757D01*
X83845628Y-70709795D01*
X83846411Y-70708775D01*
X83849578Y-70706659D01*
X83887243Y-70658883D01*
X83889618Y-70598428D01*
X83855841Y-70547876D01*
X83849816Y-70543500D01*
X83846411Y-70541225D01*
X83845526Y-70539431D01*
X83846637Y-70537768D01*
X83847912Y-70537600D01*
X83900199Y-70548000D01*
X85174801Y-70548000D01*
X85227088Y-70537600D01*
X85228982Y-70538243D01*
G37*
G36*
X90953982Y-70538243D02*
G01*
X90954372Y-70540205D01*
X90953589Y-70541225D01*
X90950422Y-70543341D01*
X90912757Y-70591117D01*
X90910382Y-70651572D01*
X90944159Y-70702124D01*
X90950184Y-70706500D01*
X90953589Y-70708775D01*
X90954474Y-70710569D01*
X90953363Y-70712232D01*
X90952088Y-70712400D01*
X90899801Y-70702000D01*
X89625199Y-70702000D01*
X89572912Y-70712400D01*
X89571018Y-70711757D01*
X89570628Y-70709795D01*
X89571411Y-70708775D01*
X89574578Y-70706659D01*
X89612243Y-70658883D01*
X89614618Y-70598428D01*
X89580841Y-70547876D01*
X89574816Y-70543500D01*
X89571411Y-70541225D01*
X89570526Y-70539431D01*
X89571637Y-70537768D01*
X89572912Y-70537600D01*
X89625199Y-70548000D01*
X90899801Y-70548000D01*
X90952088Y-70537600D01*
X90953982Y-70538243D01*
G37*
G36*
X68653982Y-70338243D02*
G01*
X68654372Y-70340205D01*
X68653589Y-70341225D01*
X68650422Y-70343341D01*
X68612757Y-70391117D01*
X68610382Y-70451572D01*
X68644159Y-70502124D01*
X68650184Y-70506500D01*
X68653589Y-70508775D01*
X68654474Y-70510569D01*
X68653363Y-70512232D01*
X68652088Y-70512400D01*
X68599801Y-70502000D01*
X67325199Y-70502000D01*
X67272912Y-70512400D01*
X67271018Y-70511757D01*
X67270628Y-70509795D01*
X67271411Y-70508775D01*
X67274578Y-70506659D01*
X67312243Y-70458883D01*
X67314618Y-70398428D01*
X67280841Y-70347876D01*
X67274816Y-70343500D01*
X67271411Y-70341225D01*
X67270526Y-70339431D01*
X67271637Y-70337768D01*
X67272912Y-70337600D01*
X67325199Y-70348000D01*
X68599801Y-70348000D01*
X68652088Y-70337600D01*
X68653982Y-70338243D01*
G37*
G36*
X62928982Y-70338243D02*
G01*
X62929372Y-70340205D01*
X62928589Y-70341225D01*
X62925422Y-70343341D01*
X62887757Y-70391117D01*
X62885382Y-70451572D01*
X62919159Y-70502124D01*
X62925184Y-70506500D01*
X62928589Y-70508775D01*
X62929474Y-70510569D01*
X62928363Y-70512232D01*
X62927088Y-70512400D01*
X62874801Y-70502000D01*
X61600199Y-70502000D01*
X61547912Y-70512400D01*
X61546018Y-70511757D01*
X61545628Y-70509795D01*
X61546411Y-70508775D01*
X61549578Y-70506659D01*
X61587243Y-70458883D01*
X61589618Y-70398428D01*
X61555841Y-70347876D01*
X61549816Y-70343500D01*
X61546411Y-70341225D01*
X61545526Y-70339431D01*
X61546637Y-70337768D01*
X61547912Y-70337600D01*
X61600199Y-70348000D01*
X62874801Y-70348000D01*
X62927088Y-70337600D01*
X62928982Y-70338243D01*
G37*
G36*
X52733982Y-70088243D02*
G01*
X52734372Y-70090205D01*
X52733589Y-70091225D01*
X52730422Y-70093341D01*
X52692757Y-70141117D01*
X52690382Y-70201572D01*
X52724159Y-70252124D01*
X52730184Y-70256500D01*
X52733589Y-70258775D01*
X52734474Y-70260569D01*
X52733363Y-70262232D01*
X52732088Y-70262400D01*
X52679801Y-70252000D01*
X51405199Y-70252000D01*
X51352912Y-70262400D01*
X51351018Y-70261757D01*
X51350628Y-70259795D01*
X51351411Y-70258775D01*
X51354578Y-70256659D01*
X51392243Y-70208883D01*
X51394618Y-70148428D01*
X51360841Y-70097876D01*
X51354816Y-70093500D01*
X51351411Y-70091225D01*
X51350526Y-70089431D01*
X51351637Y-70087768D01*
X51352912Y-70087600D01*
X51405199Y-70098000D01*
X52679801Y-70098000D01*
X52732088Y-70087600D01*
X52733982Y-70088243D01*
G37*
G36*
X47008982Y-70088243D02*
G01*
X47009372Y-70090205D01*
X47008589Y-70091225D01*
X47005422Y-70093341D01*
X46967757Y-70141117D01*
X46965382Y-70201572D01*
X46999159Y-70252124D01*
X47005184Y-70256500D01*
X47008589Y-70258775D01*
X47009474Y-70260569D01*
X47008363Y-70262232D01*
X47007088Y-70262400D01*
X46954801Y-70252000D01*
X45680199Y-70252000D01*
X45627912Y-70262400D01*
X45626018Y-70261757D01*
X45625628Y-70259795D01*
X45626411Y-70258775D01*
X45629578Y-70256659D01*
X45667243Y-70208883D01*
X45669618Y-70148428D01*
X45635841Y-70097876D01*
X45629816Y-70093500D01*
X45626411Y-70091225D01*
X45625526Y-70089431D01*
X45626637Y-70087768D01*
X45627912Y-70087600D01*
X45680199Y-70098000D01*
X46954801Y-70098000D01*
X47007088Y-70087600D01*
X47008982Y-70088243D01*
G37*
G36*
X90953982Y-69888243D02*
G01*
X90954372Y-69890205D01*
X90953589Y-69891225D01*
X90950422Y-69893341D01*
X90912757Y-69941117D01*
X90910382Y-70001572D01*
X90944159Y-70052124D01*
X90950184Y-70056500D01*
X90953589Y-70058775D01*
X90954474Y-70060569D01*
X90953363Y-70062232D01*
X90952088Y-70062400D01*
X90899801Y-70052000D01*
X89625199Y-70052000D01*
X89572912Y-70062400D01*
X89571018Y-70061757D01*
X89570628Y-70059795D01*
X89571411Y-70058775D01*
X89574578Y-70056659D01*
X89612243Y-70008883D01*
X89614618Y-69948428D01*
X89580841Y-69897876D01*
X89574816Y-69893500D01*
X89571411Y-69891225D01*
X89570526Y-69889431D01*
X89571637Y-69887768D01*
X89572912Y-69887600D01*
X89625199Y-69898000D01*
X90899801Y-69898000D01*
X90952088Y-69887600D01*
X90953982Y-69888243D01*
G37*
G36*
X85228982Y-69888243D02*
G01*
X85229372Y-69890205D01*
X85228589Y-69891225D01*
X85225422Y-69893341D01*
X85187757Y-69941117D01*
X85185382Y-70001572D01*
X85219159Y-70052124D01*
X85225184Y-70056500D01*
X85228589Y-70058775D01*
X85229474Y-70060569D01*
X85228363Y-70062232D01*
X85227088Y-70062400D01*
X85174801Y-70052000D01*
X83900199Y-70052000D01*
X83847912Y-70062400D01*
X83846018Y-70061757D01*
X83845628Y-70059795D01*
X83846411Y-70058775D01*
X83849578Y-70056659D01*
X83887243Y-70008883D01*
X83889618Y-69948428D01*
X83855841Y-69897876D01*
X83849816Y-69893500D01*
X83846411Y-69891225D01*
X83845526Y-69889431D01*
X83846637Y-69887768D01*
X83847912Y-69887600D01*
X83900199Y-69898000D01*
X85174801Y-69898000D01*
X85227088Y-69887600D01*
X85228982Y-69888243D01*
G37*
G36*
X62928982Y-69688243D02*
G01*
X62929372Y-69690205D01*
X62928589Y-69691225D01*
X62925422Y-69693341D01*
X62887757Y-69741117D01*
X62885382Y-69801572D01*
X62919159Y-69852124D01*
X62925184Y-69856500D01*
X62928589Y-69858775D01*
X62929474Y-69860569D01*
X62928363Y-69862232D01*
X62927088Y-69862400D01*
X62874801Y-69852000D01*
X61600199Y-69852000D01*
X61547912Y-69862400D01*
X61546018Y-69861757D01*
X61545628Y-69859795D01*
X61546411Y-69858775D01*
X61549578Y-69856659D01*
X61587243Y-69808883D01*
X61589618Y-69748428D01*
X61555841Y-69697876D01*
X61549816Y-69693500D01*
X61546411Y-69691225D01*
X61545526Y-69689431D01*
X61546637Y-69687768D01*
X61547912Y-69687600D01*
X61600199Y-69698000D01*
X62874801Y-69698000D01*
X62927088Y-69687600D01*
X62928982Y-69688243D01*
G37*
G36*
X68653982Y-69688243D02*
G01*
X68654372Y-69690205D01*
X68653589Y-69691225D01*
X68650422Y-69693341D01*
X68612757Y-69741117D01*
X68610382Y-69801572D01*
X68644159Y-69852124D01*
X68650184Y-69856500D01*
X68653589Y-69858775D01*
X68654474Y-69860569D01*
X68653363Y-69862232D01*
X68652088Y-69862400D01*
X68599801Y-69852000D01*
X67325199Y-69852000D01*
X67272912Y-69862400D01*
X67271018Y-69861757D01*
X67270628Y-69859795D01*
X67271411Y-69858775D01*
X67274578Y-69856659D01*
X67312243Y-69808883D01*
X67314618Y-69748428D01*
X67280841Y-69697876D01*
X67274816Y-69693500D01*
X67271411Y-69691225D01*
X67270526Y-69689431D01*
X67271637Y-69687768D01*
X67272912Y-69687600D01*
X67325199Y-69698000D01*
X68599801Y-69698000D01*
X68652088Y-69687600D01*
X68653982Y-69688243D01*
G37*
G36*
X85228982Y-69238243D02*
G01*
X85229372Y-69240205D01*
X85228589Y-69241225D01*
X85225422Y-69243341D01*
X85187757Y-69291117D01*
X85185382Y-69351572D01*
X85219159Y-69402124D01*
X85225184Y-69406500D01*
X85228589Y-69408775D01*
X85229474Y-69410569D01*
X85228363Y-69412232D01*
X85227088Y-69412400D01*
X85174801Y-69402000D01*
X83900199Y-69402000D01*
X83847912Y-69412400D01*
X83846018Y-69411757D01*
X83845628Y-69409795D01*
X83846411Y-69408775D01*
X83849578Y-69406659D01*
X83887243Y-69358883D01*
X83889618Y-69298428D01*
X83855841Y-69247876D01*
X83849816Y-69243500D01*
X83846411Y-69241225D01*
X83845526Y-69239431D01*
X83846637Y-69237768D01*
X83847912Y-69237600D01*
X83900199Y-69248000D01*
X85174801Y-69248000D01*
X85227088Y-69237600D01*
X85228982Y-69238243D01*
G37*
G36*
X90953982Y-69238243D02*
G01*
X90954372Y-69240205D01*
X90953589Y-69241225D01*
X90950422Y-69243341D01*
X90912757Y-69291117D01*
X90910382Y-69351572D01*
X90944159Y-69402124D01*
X90950184Y-69406500D01*
X90953589Y-69408775D01*
X90954474Y-69410569D01*
X90953363Y-69412232D01*
X90952088Y-69412400D01*
X90899801Y-69402000D01*
X89625199Y-69402000D01*
X89572912Y-69412400D01*
X89571018Y-69411757D01*
X89570628Y-69409795D01*
X89571411Y-69408775D01*
X89574578Y-69406659D01*
X89612243Y-69358883D01*
X89614618Y-69298428D01*
X89580841Y-69247876D01*
X89574816Y-69243500D01*
X89571411Y-69241225D01*
X89570526Y-69239431D01*
X89571637Y-69237768D01*
X89572912Y-69237600D01*
X89625199Y-69248000D01*
X90899801Y-69248000D01*
X90952088Y-69237600D01*
X90953982Y-69238243D01*
G37*
G36*
X68653982Y-69038243D02*
G01*
X68654372Y-69040205D01*
X68653589Y-69041225D01*
X68650422Y-69043341D01*
X68612757Y-69091117D01*
X68610382Y-69151572D01*
X68644159Y-69202124D01*
X68650184Y-69206500D01*
X68653589Y-69208775D01*
X68654474Y-69210569D01*
X68653363Y-69212232D01*
X68652088Y-69212400D01*
X68599801Y-69202000D01*
X67325199Y-69202000D01*
X67272912Y-69212400D01*
X67271018Y-69211757D01*
X67270628Y-69209795D01*
X67271411Y-69208775D01*
X67274578Y-69206659D01*
X67312243Y-69158883D01*
X67314618Y-69098428D01*
X67280841Y-69047876D01*
X67274816Y-69043500D01*
X67271411Y-69041225D01*
X67270526Y-69039431D01*
X67271637Y-69037768D01*
X67272912Y-69037600D01*
X67325199Y-69048000D01*
X68599801Y-69048000D01*
X68652088Y-69037600D01*
X68653982Y-69038243D01*
G37*
G36*
X62928982Y-69038243D02*
G01*
X62929372Y-69040205D01*
X62928589Y-69041225D01*
X62925422Y-69043341D01*
X62887757Y-69091117D01*
X62885382Y-69151572D01*
X62919159Y-69202124D01*
X62925184Y-69206500D01*
X62928589Y-69208775D01*
X62929474Y-69210569D01*
X62928363Y-69212232D01*
X62927088Y-69212400D01*
X62874801Y-69202000D01*
X61600199Y-69202000D01*
X61547912Y-69212400D01*
X61546018Y-69211757D01*
X61545628Y-69209795D01*
X61546411Y-69208775D01*
X61549578Y-69206659D01*
X61587243Y-69158883D01*
X61589618Y-69098428D01*
X61555841Y-69047876D01*
X61549816Y-69043500D01*
X61546411Y-69041225D01*
X61545526Y-69039431D01*
X61546637Y-69037768D01*
X61547912Y-69037600D01*
X61600199Y-69048000D01*
X62874801Y-69048000D01*
X62927088Y-69037600D01*
X62928982Y-69038243D01*
G37*
G36*
X85228982Y-68588243D02*
G01*
X85229372Y-68590205D01*
X85228589Y-68591225D01*
X85225422Y-68593341D01*
X85187757Y-68641117D01*
X85185382Y-68701572D01*
X85219159Y-68752124D01*
X85225184Y-68756500D01*
X85228589Y-68758775D01*
X85229474Y-68760569D01*
X85228363Y-68762232D01*
X85227088Y-68762400D01*
X85174801Y-68752000D01*
X83900199Y-68752000D01*
X83847912Y-68762400D01*
X83846018Y-68761757D01*
X83845628Y-68759795D01*
X83846411Y-68758775D01*
X83849578Y-68756659D01*
X83887243Y-68708883D01*
X83889618Y-68648428D01*
X83855841Y-68597876D01*
X83849816Y-68593500D01*
X83846411Y-68591225D01*
X83845526Y-68589431D01*
X83846637Y-68587768D01*
X83847912Y-68587600D01*
X83900199Y-68598000D01*
X85174801Y-68598000D01*
X85227088Y-68587600D01*
X85228982Y-68588243D01*
G37*
G36*
X90953982Y-68588243D02*
G01*
X90954372Y-68590205D01*
X90953589Y-68591225D01*
X90950422Y-68593341D01*
X90912757Y-68641117D01*
X90910382Y-68701572D01*
X90944159Y-68752124D01*
X90950184Y-68756500D01*
X90953589Y-68758775D01*
X90954474Y-68760569D01*
X90953363Y-68762232D01*
X90952088Y-68762400D01*
X90899801Y-68752000D01*
X89625199Y-68752000D01*
X89572912Y-68762400D01*
X89571018Y-68761757D01*
X89570628Y-68759795D01*
X89571411Y-68758775D01*
X89574578Y-68756659D01*
X89612243Y-68708883D01*
X89614618Y-68648428D01*
X89580841Y-68597876D01*
X89574816Y-68593500D01*
X89571411Y-68591225D01*
X89570526Y-68589431D01*
X89571637Y-68587768D01*
X89572912Y-68587600D01*
X89625199Y-68598000D01*
X90899801Y-68598000D01*
X90952088Y-68587600D01*
X90953982Y-68588243D01*
G37*
G36*
X68653982Y-68388243D02*
G01*
X68654372Y-68390205D01*
X68653589Y-68391225D01*
X68650422Y-68393341D01*
X68612757Y-68441117D01*
X68610382Y-68501572D01*
X68644159Y-68552124D01*
X68650184Y-68556500D01*
X68653589Y-68558775D01*
X68654474Y-68560569D01*
X68653363Y-68562232D01*
X68652088Y-68562400D01*
X68599801Y-68552000D01*
X67325199Y-68552000D01*
X67272912Y-68562400D01*
X67271018Y-68561757D01*
X67270628Y-68559795D01*
X67271411Y-68558775D01*
X67274578Y-68556659D01*
X67312243Y-68508883D01*
X67314618Y-68448428D01*
X67280841Y-68397876D01*
X67274816Y-68393500D01*
X67271411Y-68391225D01*
X67270526Y-68389431D01*
X67271637Y-68387768D01*
X67272912Y-68387600D01*
X67325199Y-68398000D01*
X68599801Y-68398000D01*
X68652088Y-68387600D01*
X68653982Y-68388243D01*
G37*
G36*
X62928982Y-68388243D02*
G01*
X62929372Y-68390205D01*
X62928589Y-68391225D01*
X62925422Y-68393341D01*
X62887757Y-68441117D01*
X62885382Y-68501572D01*
X62919159Y-68552124D01*
X62925184Y-68556500D01*
X62928589Y-68558775D01*
X62929474Y-68560569D01*
X62928363Y-68562232D01*
X62927088Y-68562400D01*
X62874801Y-68552000D01*
X61600199Y-68552000D01*
X61547912Y-68562400D01*
X61546018Y-68561757D01*
X61545628Y-68559795D01*
X61546411Y-68558775D01*
X61549578Y-68556659D01*
X61587243Y-68508883D01*
X61589618Y-68448428D01*
X61555841Y-68397876D01*
X61549816Y-68393500D01*
X61546411Y-68391225D01*
X61545526Y-68389431D01*
X61546637Y-68387768D01*
X61547912Y-68387600D01*
X61600199Y-68398000D01*
X62874801Y-68398000D01*
X62927088Y-68387600D01*
X62928982Y-68388243D01*
G37*
G36*
X81573478Y-62702338D02*
G01*
X81573763Y-62703037D01*
X81581312Y-62740979D01*
X81605367Y-62776982D01*
X82577359Y-63748974D01*
X82613362Y-63773029D01*
X82651321Y-63780581D01*
X82652825Y-63781900D01*
X82652435Y-63783862D01*
X82651908Y-63784288D01*
X82598760Y-63814052D01*
X82574524Y-63861620D01*
X82572847Y-63862709D01*
X82571065Y-63861801D01*
X82570780Y-63861102D01*
X82563231Y-63823160D01*
X82539176Y-63787157D01*
X81567184Y-62815165D01*
X81531181Y-62791110D01*
X81493222Y-62783558D01*
X81491718Y-62782239D01*
X81492108Y-62780277D01*
X81492635Y-62779851D01*
X81545783Y-62750087D01*
X81570019Y-62702519D01*
X81571696Y-62701430D01*
X81573478Y-62702338D01*
G37*
G36*
X80629521Y-62701906D02*
G01*
X80629947Y-62702433D01*
X80659711Y-62755581D01*
X80707279Y-62779817D01*
X80708368Y-62781494D01*
X80707460Y-62783276D01*
X80706761Y-62783561D01*
X80668819Y-62791110D01*
X80632816Y-62815165D01*
X79660824Y-63787157D01*
X79636769Y-63823160D01*
X79629217Y-63861119D01*
X79627898Y-63862623D01*
X79625936Y-63862233D01*
X79625510Y-63861706D01*
X79595746Y-63808558D01*
X79548178Y-63784322D01*
X79547089Y-63782645D01*
X79547997Y-63780863D01*
X79548696Y-63780578D01*
X79586638Y-63773029D01*
X79622641Y-63748974D01*
X80594633Y-62776982D01*
X80618688Y-62740979D01*
X80626240Y-62703020D01*
X80627559Y-62701516D01*
X80629521Y-62701906D01*
G37*
G36*
X81856322Y-62419498D02*
G01*
X81856607Y-62420197D01*
X81864155Y-62458137D01*
X81888210Y-62494140D01*
X82860202Y-63466132D01*
X82896205Y-63490187D01*
X82934162Y-63497739D01*
X82935666Y-63499058D01*
X82935276Y-63501020D01*
X82934749Y-63501446D01*
X82881602Y-63531210D01*
X82857366Y-63578775D01*
X82855689Y-63579864D01*
X82853907Y-63578956D01*
X82853622Y-63578257D01*
X82846074Y-63540317D01*
X82822019Y-63504314D01*
X81850027Y-62532322D01*
X81814024Y-62508267D01*
X81776067Y-62500715D01*
X81774563Y-62499396D01*
X81774953Y-62497434D01*
X81775480Y-62497008D01*
X81828627Y-62467244D01*
X81852863Y-62419679D01*
X81854540Y-62418590D01*
X81856322Y-62419498D01*
G37*
G36*
X80346678Y-62419065D02*
G01*
X80347104Y-62419592D01*
X80376866Y-62472737D01*
X80424433Y-62496975D01*
X80425522Y-62498652D01*
X80424614Y-62500434D01*
X80423915Y-62500719D01*
X80385976Y-62508267D01*
X80349973Y-62532322D01*
X79377981Y-63504314D01*
X79353926Y-63540317D01*
X79346374Y-63578275D01*
X79345055Y-63579779D01*
X79343093Y-63579389D01*
X79342667Y-63578862D01*
X79312905Y-63525717D01*
X79265338Y-63501479D01*
X79264249Y-63499802D01*
X79265157Y-63498020D01*
X79265856Y-63497735D01*
X79303795Y-63490187D01*
X79339798Y-63466132D01*
X80311790Y-62494140D01*
X80335845Y-62458137D01*
X80343397Y-62420179D01*
X80344716Y-62418675D01*
X80346678Y-62419065D01*
G37*
G36*
X82139164Y-62136653D02*
G01*
X82139449Y-62137352D01*
X82146998Y-62175294D01*
X82171053Y-62211297D01*
X83143045Y-63183289D01*
X83179048Y-63207344D01*
X83217007Y-63214896D01*
X83218511Y-63216215D01*
X83218121Y-63218177D01*
X83217594Y-63218603D01*
X83164446Y-63248367D01*
X83140210Y-63295935D01*
X83138533Y-63297024D01*
X83136751Y-63296116D01*
X83136466Y-63295417D01*
X83128917Y-63257475D01*
X83104862Y-63221472D01*
X82132870Y-62249480D01*
X82096867Y-62225425D01*
X82058908Y-62217873D01*
X82057404Y-62216554D01*
X82057794Y-62214592D01*
X82058321Y-62214166D01*
X82111469Y-62184402D01*
X82135705Y-62136834D01*
X82137382Y-62135745D01*
X82139164Y-62136653D01*
G37*
G36*
X80063835Y-62136221D02*
G01*
X80064261Y-62136748D01*
X80094025Y-62189896D01*
X80141593Y-62214132D01*
X80142682Y-62215809D01*
X80141774Y-62217591D01*
X80141075Y-62217876D01*
X80103133Y-62225425D01*
X80067130Y-62249480D01*
X79095138Y-63221472D01*
X79071083Y-63257475D01*
X79063531Y-63295434D01*
X79062212Y-63296938D01*
X79060250Y-63296548D01*
X79059824Y-63296021D01*
X79030060Y-63242873D01*
X78982492Y-63218637D01*
X78981403Y-63216960D01*
X78982311Y-63215178D01*
X78983010Y-63214893D01*
X79020952Y-63207344D01*
X79056955Y-63183289D01*
X80028947Y-62211297D01*
X80053002Y-62175294D01*
X80060554Y-62137335D01*
X80061873Y-62135831D01*
X80063835Y-62136221D01*
G37*
G36*
X82422007Y-61853813D02*
G01*
X82422292Y-61854512D01*
X82429840Y-61892451D01*
X82453895Y-61928454D01*
X83425887Y-62900446D01*
X83461890Y-62924501D01*
X83499848Y-62932053D01*
X83501352Y-62933372D01*
X83500962Y-62935334D01*
X83500435Y-62935760D01*
X83447290Y-62965522D01*
X83423052Y-63013089D01*
X83421375Y-63014178D01*
X83419593Y-63013270D01*
X83419308Y-63012571D01*
X83411760Y-62974632D01*
X83387705Y-62938629D01*
X82415713Y-61966637D01*
X82379710Y-61942582D01*
X82341752Y-61935030D01*
X82340248Y-61933711D01*
X82340638Y-61931749D01*
X82341165Y-61931323D01*
X82394310Y-61901561D01*
X82418548Y-61853994D01*
X82420225Y-61852905D01*
X82422007Y-61853813D01*
G37*
G36*
X79780993Y-61853380D02*
G01*
X79781419Y-61853907D01*
X79811183Y-61907054D01*
X79858748Y-61931290D01*
X79859837Y-61932967D01*
X79858929Y-61934749D01*
X79858230Y-61935034D01*
X79820290Y-61942582D01*
X79784287Y-61966637D01*
X78812295Y-62938629D01*
X78788240Y-62974632D01*
X78780688Y-63012589D01*
X78779369Y-63014093D01*
X78777407Y-63013703D01*
X78776981Y-63013176D01*
X78747217Y-62960029D01*
X78699652Y-62935793D01*
X78698563Y-62934116D01*
X78699471Y-62932334D01*
X78700170Y-62932049D01*
X78738110Y-62924501D01*
X78774113Y-62900446D01*
X79746105Y-61928454D01*
X79770160Y-61892451D01*
X79777712Y-61854494D01*
X79779031Y-61852990D01*
X79780993Y-61853380D01*
G37*
G36*
X82704850Y-61570970D02*
G01*
X82705135Y-61571669D01*
X82712683Y-61609609D01*
X82736738Y-61645612D01*
X83708730Y-62617604D01*
X83744733Y-62641659D01*
X83782690Y-62649211D01*
X83784194Y-62650530D01*
X83783804Y-62652492D01*
X83783277Y-62652918D01*
X83730130Y-62682682D01*
X83705894Y-62730247D01*
X83704217Y-62731336D01*
X83702435Y-62730428D01*
X83702150Y-62729729D01*
X83694602Y-62691789D01*
X83670547Y-62655786D01*
X82698555Y-61683794D01*
X82662552Y-61659739D01*
X82624595Y-61652187D01*
X82623091Y-61650868D01*
X82623481Y-61648906D01*
X82624008Y-61648480D01*
X82677155Y-61618716D01*
X82701391Y-61571151D01*
X82703068Y-61570062D01*
X82704850Y-61570970D01*
G37*
G36*
X79498150Y-61570537D02*
G01*
X79498576Y-61571064D01*
X79528338Y-61624209D01*
X79575905Y-61648447D01*
X79576994Y-61650124D01*
X79576086Y-61651906D01*
X79575387Y-61652191D01*
X79537448Y-61659739D01*
X79501445Y-61683794D01*
X78529453Y-62655786D01*
X78505398Y-62691789D01*
X78497846Y-62729747D01*
X78496527Y-62731251D01*
X78494565Y-62730861D01*
X78494139Y-62730334D01*
X78464377Y-62677189D01*
X78416810Y-62652951D01*
X78415721Y-62651274D01*
X78416629Y-62649492D01*
X78417328Y-62649207D01*
X78455267Y-62641659D01*
X78491270Y-62617604D01*
X79463262Y-61645612D01*
X79487317Y-61609609D01*
X79494869Y-61571651D01*
X79496188Y-61570147D01*
X79498150Y-61570537D01*
G37*
G36*
X82987692Y-61288125D02*
G01*
X82987977Y-61288824D01*
X82995526Y-61326766D01*
X83019581Y-61362769D01*
X83991573Y-62334761D01*
X84027576Y-62358816D01*
X84065535Y-62366368D01*
X84067039Y-62367687D01*
X84066649Y-62369649D01*
X84066122Y-62370075D01*
X84012974Y-62399839D01*
X83988738Y-62447407D01*
X83987061Y-62448496D01*
X83985279Y-62447588D01*
X83984994Y-62446889D01*
X83977445Y-62408947D01*
X83953390Y-62372944D01*
X82981398Y-61400952D01*
X82945395Y-61376897D01*
X82907436Y-61369345D01*
X82905932Y-61368026D01*
X82906322Y-61366064D01*
X82906849Y-61365638D01*
X82959997Y-61335874D01*
X82984233Y-61288306D01*
X82985910Y-61287217D01*
X82987692Y-61288125D01*
G37*
G36*
X79215307Y-61287693D02*
G01*
X79215733Y-61288220D01*
X79245497Y-61341368D01*
X79293065Y-61365604D01*
X79294154Y-61367281D01*
X79293246Y-61369063D01*
X79292547Y-61369348D01*
X79254605Y-61376897D01*
X79218602Y-61400952D01*
X78246610Y-62372944D01*
X78222555Y-62408947D01*
X78215003Y-62446906D01*
X78213684Y-62448410D01*
X78211722Y-62448020D01*
X78211296Y-62447493D01*
X78181532Y-62394345D01*
X78133964Y-62370109D01*
X78132875Y-62368432D01*
X78133783Y-62366650D01*
X78134482Y-62366365D01*
X78172424Y-62358816D01*
X78208427Y-62334761D01*
X79180419Y-61362769D01*
X79204474Y-61326766D01*
X79212026Y-61288807D01*
X79213345Y-61287303D01*
X79215307Y-61287693D01*
G37*
G36*
X83270535Y-61005285D02*
G01*
X83270820Y-61005984D01*
X83278368Y-61043923D01*
X83302423Y-61079926D01*
X84274415Y-62051918D01*
X84310418Y-62075973D01*
X84348376Y-62083525D01*
X84349880Y-62084844D01*
X84349490Y-62086806D01*
X84348963Y-62087232D01*
X84295818Y-62116994D01*
X84271580Y-62164561D01*
X84269903Y-62165650D01*
X84268121Y-62164742D01*
X84267836Y-62164043D01*
X84260288Y-62126104D01*
X84236233Y-62090101D01*
X83264241Y-61118109D01*
X83228238Y-61094054D01*
X83190280Y-61086502D01*
X83188776Y-61085183D01*
X83189166Y-61083221D01*
X83189693Y-61082795D01*
X83242838Y-61053033D01*
X83267076Y-61005466D01*
X83268753Y-61004377D01*
X83270535Y-61005285D01*
G37*
G36*
X78932465Y-61004852D02*
G01*
X78932891Y-61005379D01*
X78962655Y-61058526D01*
X79010220Y-61082762D01*
X79011309Y-61084439D01*
X79010401Y-61086221D01*
X79009702Y-61086506D01*
X78971762Y-61094054D01*
X78935759Y-61118109D01*
X77963767Y-62090101D01*
X77939712Y-62126104D01*
X77932160Y-62164061D01*
X77930841Y-62165565D01*
X77928879Y-62165175D01*
X77928453Y-62164648D01*
X77898689Y-62111501D01*
X77851124Y-62087265D01*
X77850035Y-62085588D01*
X77850943Y-62083806D01*
X77851642Y-62083521D01*
X77889582Y-62075973D01*
X77925585Y-62051918D01*
X78897577Y-61079926D01*
X78921632Y-61043923D01*
X78929184Y-61005966D01*
X78930503Y-61004462D01*
X78932465Y-61004852D01*
G37*
G36*
X83553377Y-60722439D02*
G01*
X83553662Y-60723138D01*
X83561211Y-60761080D01*
X83585266Y-60797083D01*
X84557258Y-61769075D01*
X84593261Y-61793130D01*
X84631220Y-61800682D01*
X84632724Y-61802001D01*
X84632334Y-61803963D01*
X84631807Y-61804389D01*
X84578659Y-61834153D01*
X84554423Y-61881721D01*
X84552746Y-61882810D01*
X84550964Y-61881902D01*
X84550679Y-61881203D01*
X84543130Y-61843261D01*
X84519075Y-61807258D01*
X83547083Y-60835266D01*
X83511080Y-60811211D01*
X83473121Y-60803659D01*
X83471617Y-60802340D01*
X83472007Y-60800378D01*
X83472534Y-60799952D01*
X83525682Y-60770188D01*
X83549918Y-60722620D01*
X83551595Y-60721531D01*
X83553377Y-60722439D01*
G37*
G36*
X78649622Y-60722007D02*
G01*
X78650048Y-60722534D01*
X78679812Y-60775682D01*
X78727380Y-60799918D01*
X78728469Y-60801595D01*
X78727561Y-60803377D01*
X78726862Y-60803662D01*
X78688920Y-60811211D01*
X78652917Y-60835266D01*
X77680925Y-61807258D01*
X77656870Y-61843261D01*
X77649318Y-61881220D01*
X77647999Y-61882724D01*
X77646037Y-61882334D01*
X77645611Y-61881807D01*
X77615847Y-61828659D01*
X77568279Y-61804423D01*
X77567190Y-61802746D01*
X77568098Y-61800964D01*
X77568797Y-61800679D01*
X77606739Y-61793130D01*
X77642742Y-61769075D01*
X78614734Y-60797083D01*
X78638789Y-60761080D01*
X78646341Y-60723121D01*
X78647660Y-60721617D01*
X78649622Y-60722007D01*
G37*
G36*
X83836221Y-60439599D02*
G01*
X83836506Y-60440298D01*
X83844054Y-60478238D01*
X83868109Y-60514241D01*
X84840101Y-61486233D01*
X84876104Y-61510288D01*
X84914061Y-61517840D01*
X84915565Y-61519159D01*
X84915175Y-61521121D01*
X84914648Y-61521547D01*
X84861501Y-61551311D01*
X84837265Y-61598876D01*
X84835588Y-61599965D01*
X84833806Y-61599057D01*
X84833521Y-61598358D01*
X84825973Y-61560418D01*
X84801918Y-61524415D01*
X83829926Y-60552423D01*
X83793923Y-60528368D01*
X83755966Y-60520816D01*
X83754462Y-60519497D01*
X83754852Y-60517535D01*
X83755379Y-60517109D01*
X83808526Y-60487345D01*
X83832762Y-60439780D01*
X83834439Y-60438691D01*
X83836221Y-60439599D01*
G37*
G36*
X78366779Y-60439166D02*
G01*
X78367205Y-60439693D01*
X78396967Y-60492838D01*
X78444534Y-60517076D01*
X78445623Y-60518753D01*
X78444715Y-60520535D01*
X78444016Y-60520820D01*
X78406077Y-60528368D01*
X78370074Y-60552423D01*
X77398082Y-61524415D01*
X77374027Y-61560418D01*
X77366475Y-61598376D01*
X77365156Y-61599880D01*
X77363194Y-61599490D01*
X77362768Y-61598963D01*
X77333006Y-61545818D01*
X77285439Y-61521580D01*
X77284350Y-61519903D01*
X77285258Y-61518121D01*
X77285957Y-61517836D01*
X77323896Y-61510288D01*
X77359899Y-61486233D01*
X78331891Y-60514241D01*
X78355946Y-60478238D01*
X78363498Y-60440280D01*
X78364817Y-60438776D01*
X78366779Y-60439166D01*
G37*
G36*
X84119063Y-60156754D02*
G01*
X84119348Y-60157453D01*
X84126897Y-60195395D01*
X84150952Y-60231398D01*
X85122944Y-61203390D01*
X85158947Y-61227445D01*
X85196906Y-61234997D01*
X85198410Y-61236316D01*
X85198020Y-61238278D01*
X85197493Y-61238704D01*
X85144345Y-61268468D01*
X85120109Y-61316036D01*
X85118432Y-61317125D01*
X85116650Y-61316217D01*
X85116365Y-61315518D01*
X85108816Y-61277576D01*
X85084761Y-61241573D01*
X84112769Y-60269581D01*
X84076766Y-60245526D01*
X84038807Y-60237974D01*
X84037303Y-60236655D01*
X84037693Y-60234693D01*
X84038220Y-60234267D01*
X84091368Y-60204503D01*
X84115604Y-60156935D01*
X84117281Y-60155846D01*
X84119063Y-60156754D01*
G37*
G36*
X78083936Y-60156322D02*
G01*
X78084362Y-60156849D01*
X78114126Y-60209997D01*
X78161694Y-60234233D01*
X78162783Y-60235910D01*
X78161875Y-60237692D01*
X78161176Y-60237977D01*
X78123234Y-60245526D01*
X78087231Y-60269581D01*
X77115239Y-61241573D01*
X77091184Y-61277576D01*
X77083632Y-61315535D01*
X77082313Y-61317039D01*
X77080351Y-61316649D01*
X77079925Y-61316122D01*
X77050161Y-61262974D01*
X77002593Y-61238738D01*
X77001504Y-61237061D01*
X77002412Y-61235279D01*
X77003111Y-61234994D01*
X77041053Y-61227445D01*
X77077056Y-61203390D01*
X78049048Y-60231398D01*
X78073103Y-60195395D01*
X78080655Y-60157436D01*
X78081974Y-60155932D01*
X78083936Y-60156322D01*
G37*
G36*
X84401906Y-59873914D02*
G01*
X84402191Y-59874613D01*
X84409739Y-59912552D01*
X84433794Y-59948555D01*
X85405786Y-60920547D01*
X85441789Y-60944602D01*
X85479747Y-60952154D01*
X85481251Y-60953473D01*
X85480861Y-60955435D01*
X85480334Y-60955861D01*
X85427189Y-60985623D01*
X85402951Y-61033190D01*
X85401274Y-61034279D01*
X85399492Y-61033371D01*
X85399207Y-61032672D01*
X85391659Y-60994733D01*
X85367604Y-60958730D01*
X84395612Y-59986738D01*
X84359609Y-59962683D01*
X84321651Y-59955131D01*
X84320147Y-59953812D01*
X84320537Y-59951850D01*
X84321064Y-59951424D01*
X84374209Y-59921662D01*
X84398447Y-59874095D01*
X84400124Y-59873006D01*
X84401906Y-59873914D01*
G37*
G36*
X77801094Y-59873481D02*
G01*
X77801520Y-59874008D01*
X77831284Y-59927155D01*
X77878849Y-59951391D01*
X77879938Y-59953068D01*
X77879030Y-59954850D01*
X77878331Y-59955135D01*
X77840391Y-59962683D01*
X77804388Y-59986738D01*
X76832396Y-60958730D01*
X76808341Y-60994733D01*
X76800789Y-61032690D01*
X76799470Y-61034194D01*
X76797508Y-61033804D01*
X76797082Y-61033277D01*
X76767318Y-60980130D01*
X76719753Y-60955894D01*
X76718664Y-60954217D01*
X76719572Y-60952435D01*
X76720271Y-60952150D01*
X76758211Y-60944602D01*
X76794214Y-60920547D01*
X77766206Y-59948555D01*
X77790261Y-59912552D01*
X77797813Y-59874595D01*
X77799132Y-59873091D01*
X77801094Y-59873481D01*
G37*
G36*
X84684749Y-59591071D02*
G01*
X84685034Y-59591770D01*
X84692582Y-59629710D01*
X84716637Y-59665713D01*
X85688629Y-60637705D01*
X85724632Y-60661760D01*
X85762589Y-60669312D01*
X85764093Y-60670631D01*
X85763703Y-60672593D01*
X85763176Y-60673019D01*
X85710029Y-60702783D01*
X85685793Y-60750348D01*
X85684116Y-60751437D01*
X85682334Y-60750529D01*
X85682049Y-60749830D01*
X85674501Y-60711890D01*
X85650446Y-60675887D01*
X84678454Y-59703895D01*
X84642451Y-59679840D01*
X84604494Y-59672288D01*
X84602990Y-59670969D01*
X84603380Y-59669007D01*
X84603907Y-59668581D01*
X84657054Y-59638817D01*
X84681290Y-59591252D01*
X84682967Y-59590163D01*
X84684749Y-59591071D01*
G37*
G36*
X77518251Y-59590638D02*
G01*
X77518677Y-59591165D01*
X77548439Y-59644310D01*
X77596006Y-59668548D01*
X77597095Y-59670225D01*
X77596187Y-59672007D01*
X77595488Y-59672292D01*
X77557549Y-59679840D01*
X77521546Y-59703895D01*
X76549554Y-60675887D01*
X76525499Y-60711890D01*
X76517947Y-60749848D01*
X76516628Y-60751352D01*
X76514666Y-60750962D01*
X76514240Y-60750435D01*
X76484478Y-60697290D01*
X76436911Y-60673052D01*
X76435822Y-60671375D01*
X76436730Y-60669593D01*
X76437429Y-60669308D01*
X76475368Y-60661760D01*
X76511371Y-60637705D01*
X77483363Y-59665713D01*
X77507418Y-59629710D01*
X77514970Y-59591752D01*
X77516289Y-59590248D01*
X77518251Y-59590638D01*
G37*
G36*
X84967591Y-59308226D02*
G01*
X84967876Y-59308925D01*
X84975425Y-59346867D01*
X84999480Y-59382870D01*
X85971472Y-60354862D01*
X86007475Y-60378917D01*
X86045434Y-60386469D01*
X86046938Y-60387788D01*
X86046548Y-60389750D01*
X86046021Y-60390176D01*
X85992873Y-60419940D01*
X85968637Y-60467508D01*
X85966960Y-60468597D01*
X85965178Y-60467689D01*
X85964893Y-60466990D01*
X85957344Y-60429048D01*
X85933289Y-60393045D01*
X84961297Y-59421053D01*
X84925294Y-59396998D01*
X84887335Y-59389446D01*
X84885831Y-59388127D01*
X84886221Y-59386165D01*
X84886748Y-59385739D01*
X84939896Y-59355975D01*
X84964132Y-59308407D01*
X84965809Y-59307318D01*
X84967591Y-59308226D01*
G37*
G36*
X77235408Y-59307794D02*
G01*
X77235834Y-59308321D01*
X77265598Y-59361469D01*
X77313166Y-59385705D01*
X77314255Y-59387382D01*
X77313347Y-59389164D01*
X77312648Y-59389449D01*
X77274706Y-59396998D01*
X77238703Y-59421053D01*
X76266711Y-60393045D01*
X76242656Y-60429048D01*
X76235104Y-60467007D01*
X76233785Y-60468511D01*
X76231823Y-60468121D01*
X76231397Y-60467594D01*
X76201633Y-60414446D01*
X76154065Y-60390210D01*
X76152976Y-60388533D01*
X76153884Y-60386751D01*
X76154583Y-60386466D01*
X76192525Y-60378917D01*
X76228528Y-60354862D01*
X77200520Y-59382870D01*
X77224575Y-59346867D01*
X77232127Y-59308908D01*
X77233446Y-59307404D01*
X77235408Y-59307794D01*
G37*
G36*
X85250434Y-59025386D02*
G01*
X85250719Y-59026085D01*
X85258267Y-59064024D01*
X85282322Y-59100027D01*
X86254314Y-60072019D01*
X86290317Y-60096074D01*
X86328275Y-60103626D01*
X86329779Y-60104945D01*
X86329389Y-60106907D01*
X86328862Y-60107333D01*
X86275717Y-60137095D01*
X86251479Y-60184662D01*
X86249802Y-60185751D01*
X86248020Y-60184843D01*
X86247735Y-60184144D01*
X86240187Y-60146205D01*
X86216132Y-60110202D01*
X85244140Y-59138210D01*
X85208137Y-59114155D01*
X85170179Y-59106603D01*
X85168675Y-59105284D01*
X85169065Y-59103322D01*
X85169592Y-59102896D01*
X85222737Y-59073134D01*
X85246975Y-59025567D01*
X85248652Y-59024478D01*
X85250434Y-59025386D01*
G37*
G36*
X76952566Y-59024953D02*
G01*
X76952992Y-59025480D01*
X76982756Y-59078627D01*
X77030321Y-59102863D01*
X77031410Y-59104540D01*
X77030502Y-59106322D01*
X77029803Y-59106607D01*
X76991863Y-59114155D01*
X76955860Y-59138210D01*
X75983868Y-60110202D01*
X75959813Y-60146205D01*
X75952261Y-60184162D01*
X75950942Y-60185666D01*
X75948980Y-60185276D01*
X75948554Y-60184749D01*
X75918790Y-60131602D01*
X75871225Y-60107366D01*
X75870136Y-60105689D01*
X75871044Y-60103907D01*
X75871743Y-60103622D01*
X75909683Y-60096074D01*
X75945686Y-60072019D01*
X76917678Y-59100027D01*
X76941733Y-59064024D01*
X76949285Y-59026067D01*
X76950604Y-59024563D01*
X76952566Y-59024953D01*
G37*
G36*
X85533276Y-58742540D02*
G01*
X85533561Y-58743239D01*
X85541110Y-58781181D01*
X85565165Y-58817184D01*
X86537157Y-59789176D01*
X86573160Y-59813231D01*
X86611119Y-59820783D01*
X86612623Y-59822102D01*
X86612233Y-59824064D01*
X86611706Y-59824490D01*
X86558558Y-59854254D01*
X86534322Y-59901822D01*
X86532645Y-59902911D01*
X86530863Y-59902003D01*
X86530578Y-59901304D01*
X86523029Y-59863362D01*
X86498974Y-59827359D01*
X85526982Y-58855367D01*
X85490979Y-58831312D01*
X85453020Y-58823760D01*
X85451516Y-58822441D01*
X85451906Y-58820479D01*
X85452433Y-58820053D01*
X85505581Y-58790289D01*
X85529817Y-58742721D01*
X85531494Y-58741632D01*
X85533276Y-58742540D01*
G37*
G36*
X76669723Y-58742108D02*
G01*
X76670149Y-58742635D01*
X76699913Y-58795783D01*
X76747481Y-58820019D01*
X76748570Y-58821696D01*
X76747662Y-58823478D01*
X76746963Y-58823763D01*
X76709021Y-58831312D01*
X76673018Y-58855367D01*
X75701026Y-59827359D01*
X75676971Y-59863362D01*
X75669419Y-59901321D01*
X75668100Y-59902825D01*
X75666138Y-59902435D01*
X75665712Y-59901908D01*
X75635948Y-59848760D01*
X75588380Y-59824524D01*
X75587291Y-59822847D01*
X75588199Y-59821065D01*
X75588898Y-59820780D01*
X75626840Y-59813231D01*
X75662843Y-59789176D01*
X76634835Y-58817184D01*
X76658890Y-58781181D01*
X76666442Y-58743222D01*
X76667761Y-58741718D01*
X76669723Y-58742108D01*
G37*
G36*
X75669137Y-56797997D02*
G01*
X75669422Y-56798696D01*
X75676971Y-56836638D01*
X75701026Y-56872641D01*
X76673018Y-57844633D01*
X76709021Y-57868688D01*
X76746980Y-57876240D01*
X76748484Y-57877559D01*
X76748094Y-57879521D01*
X76747567Y-57879947D01*
X76694419Y-57909711D01*
X76670183Y-57957279D01*
X76668506Y-57958368D01*
X76666724Y-57957460D01*
X76666439Y-57956761D01*
X76658890Y-57918819D01*
X76634835Y-57882816D01*
X75662843Y-56910824D01*
X75626840Y-56886769D01*
X75588881Y-56879217D01*
X75587377Y-56877898D01*
X75587767Y-56875936D01*
X75588294Y-56875510D01*
X75641442Y-56845746D01*
X75665678Y-56798178D01*
X75667355Y-56797089D01*
X75669137Y-56797997D01*
G37*
G36*
X86533862Y-56797565D02*
G01*
X86534288Y-56798092D01*
X86564052Y-56851240D01*
X86611620Y-56875476D01*
X86612709Y-56877153D01*
X86611801Y-56878935D01*
X86611102Y-56879220D01*
X86573160Y-56886769D01*
X86537157Y-56910824D01*
X85565165Y-57882816D01*
X85541110Y-57918819D01*
X85533558Y-57956778D01*
X85532239Y-57958282D01*
X85530277Y-57957892D01*
X85529851Y-57957365D01*
X85500087Y-57904217D01*
X85452519Y-57879981D01*
X85451430Y-57878304D01*
X85452338Y-57876522D01*
X85453037Y-57876237D01*
X85490979Y-57868688D01*
X85526982Y-57844633D01*
X86498974Y-56872641D01*
X86523029Y-56836638D01*
X86530581Y-56798679D01*
X86531900Y-56797175D01*
X86533862Y-56797565D01*
G37*
G36*
X75951980Y-56515157D02*
G01*
X75952265Y-56515856D01*
X75959813Y-56553795D01*
X75983868Y-56589798D01*
X76955860Y-57561790D01*
X76991863Y-57585845D01*
X77029821Y-57593397D01*
X77031325Y-57594716D01*
X77030935Y-57596678D01*
X77030408Y-57597104D01*
X76977263Y-57626866D01*
X76953025Y-57674433D01*
X76951348Y-57675522D01*
X76949566Y-57674614D01*
X76949281Y-57673915D01*
X76941733Y-57635976D01*
X76917678Y-57599973D01*
X75945686Y-56627981D01*
X75909683Y-56603926D01*
X75871725Y-56596374D01*
X75870221Y-56595055D01*
X75870611Y-56593093D01*
X75871138Y-56592667D01*
X75924283Y-56562905D01*
X75948521Y-56515338D01*
X75950198Y-56514249D01*
X75951980Y-56515157D01*
G37*
G36*
X86251020Y-56514724D02*
G01*
X86251446Y-56515251D01*
X86281210Y-56568398D01*
X86328775Y-56592634D01*
X86329864Y-56594311D01*
X86328956Y-56596093D01*
X86328257Y-56596378D01*
X86290317Y-56603926D01*
X86254314Y-56627981D01*
X85282322Y-57599973D01*
X85258267Y-57635976D01*
X85250715Y-57673933D01*
X85249396Y-57675437D01*
X85247434Y-57675047D01*
X85247008Y-57674520D01*
X85217244Y-57621373D01*
X85169679Y-57597137D01*
X85168590Y-57595460D01*
X85169498Y-57593678D01*
X85170197Y-57593393D01*
X85208137Y-57585845D01*
X85244140Y-57561790D01*
X86216132Y-56589798D01*
X86240187Y-56553795D01*
X86247739Y-56515838D01*
X86249058Y-56514334D01*
X86251020Y-56514724D01*
G37*
G36*
X76234822Y-56232311D02*
G01*
X76235107Y-56233010D01*
X76242656Y-56270952D01*
X76266711Y-56306955D01*
X77238703Y-57278947D01*
X77274706Y-57303002D01*
X77312665Y-57310554D01*
X77314169Y-57311873D01*
X77313779Y-57313835D01*
X77313252Y-57314261D01*
X77260104Y-57344025D01*
X77235868Y-57391593D01*
X77234191Y-57392682D01*
X77232409Y-57391774D01*
X77232124Y-57391075D01*
X77224575Y-57353133D01*
X77200520Y-57317130D01*
X76228528Y-56345138D01*
X76192525Y-56321083D01*
X76154566Y-56313531D01*
X76153062Y-56312212D01*
X76153452Y-56310250D01*
X76153979Y-56309824D01*
X76207127Y-56280060D01*
X76231363Y-56232492D01*
X76233040Y-56231403D01*
X76234822Y-56232311D01*
G37*
G36*
X85968177Y-56231879D02*
G01*
X85968603Y-56232406D01*
X85998367Y-56285554D01*
X86045935Y-56309790D01*
X86047024Y-56311467D01*
X86046116Y-56313249D01*
X86045417Y-56313534D01*
X86007475Y-56321083D01*
X85971472Y-56345138D01*
X84999480Y-57317130D01*
X84975425Y-57353133D01*
X84967873Y-57391092D01*
X84966554Y-57392596D01*
X84964592Y-57392206D01*
X84964166Y-57391679D01*
X84934402Y-57338531D01*
X84886834Y-57314295D01*
X84885745Y-57312618D01*
X84886653Y-57310836D01*
X84887352Y-57310551D01*
X84925294Y-57303002D01*
X84961297Y-57278947D01*
X85933289Y-56306955D01*
X85957344Y-56270952D01*
X85964896Y-56232993D01*
X85966215Y-56231489D01*
X85968177Y-56231879D01*
G37*
G36*
X76517666Y-55949471D02*
G01*
X76517951Y-55950170D01*
X76525499Y-55988110D01*
X76549554Y-56024113D01*
X77521546Y-56996105D01*
X77557549Y-57020160D01*
X77595506Y-57027712D01*
X77597010Y-57029031D01*
X77596620Y-57030993D01*
X77596093Y-57031419D01*
X77542946Y-57061183D01*
X77518710Y-57108748D01*
X77517033Y-57109837D01*
X77515251Y-57108929D01*
X77514966Y-57108230D01*
X77507418Y-57070290D01*
X77483363Y-57034287D01*
X76511371Y-56062295D01*
X76475368Y-56038240D01*
X76437411Y-56030688D01*
X76435907Y-56029369D01*
X76436297Y-56027407D01*
X76436824Y-56026981D01*
X76489971Y-55997217D01*
X76514207Y-55949652D01*
X76515884Y-55948563D01*
X76517666Y-55949471D01*
G37*
G36*
X85685334Y-55949038D02*
G01*
X85685760Y-55949565D01*
X85715522Y-56002710D01*
X85763089Y-56026948D01*
X85764178Y-56028625D01*
X85763270Y-56030407D01*
X85762571Y-56030692D01*
X85724632Y-56038240D01*
X85688629Y-56062295D01*
X84716637Y-57034287D01*
X84692582Y-57070290D01*
X84685030Y-57108248D01*
X84683711Y-57109752D01*
X84681749Y-57109362D01*
X84681323Y-57108835D01*
X84651561Y-57055690D01*
X84603994Y-57031452D01*
X84602905Y-57029775D01*
X84603813Y-57027993D01*
X84604512Y-57027708D01*
X84642451Y-57020160D01*
X84678454Y-56996105D01*
X85650446Y-56024113D01*
X85674501Y-55988110D01*
X85682053Y-55950152D01*
X85683372Y-55948648D01*
X85685334Y-55949038D01*
G37*
G36*
X76800508Y-55666629D02*
G01*
X76800793Y-55667328D01*
X76808341Y-55705267D01*
X76832396Y-55741270D01*
X77804388Y-56713262D01*
X77840391Y-56737317D01*
X77878349Y-56744869D01*
X77879853Y-56746188D01*
X77879463Y-56748150D01*
X77878936Y-56748576D01*
X77825791Y-56778338D01*
X77801553Y-56825905D01*
X77799876Y-56826994D01*
X77798094Y-56826086D01*
X77797809Y-56825387D01*
X77790261Y-56787448D01*
X77766206Y-56751445D01*
X76794214Y-55779453D01*
X76758211Y-55755398D01*
X76720253Y-55747846D01*
X76718749Y-55746527D01*
X76719139Y-55744565D01*
X76719666Y-55744139D01*
X76772811Y-55714377D01*
X76797049Y-55666810D01*
X76798726Y-55665721D01*
X76800508Y-55666629D01*
G37*
G36*
X85402492Y-55666196D02*
G01*
X85402918Y-55666723D01*
X85432682Y-55719870D01*
X85480247Y-55744106D01*
X85481336Y-55745783D01*
X85480428Y-55747565D01*
X85479729Y-55747850D01*
X85441789Y-55755398D01*
X85405786Y-55779453D01*
X84433794Y-56751445D01*
X84409739Y-56787448D01*
X84402187Y-56825405D01*
X84400868Y-56826909D01*
X84398906Y-56826519D01*
X84398480Y-56825992D01*
X84368716Y-56772845D01*
X84321151Y-56748609D01*
X84320062Y-56746932D01*
X84320970Y-56745150D01*
X84321669Y-56744865D01*
X84359609Y-56737317D01*
X84395612Y-56713262D01*
X85367604Y-55741270D01*
X85391659Y-55705267D01*
X85399211Y-55667310D01*
X85400530Y-55665806D01*
X85402492Y-55666196D01*
G37*
G36*
X77083350Y-55383783D02*
G01*
X77083635Y-55384482D01*
X77091184Y-55422424D01*
X77115239Y-55458427D01*
X78087231Y-56430419D01*
X78123234Y-56454474D01*
X78161193Y-56462026D01*
X78162697Y-56463345D01*
X78162307Y-56465307D01*
X78161780Y-56465733D01*
X78108632Y-56495497D01*
X78084396Y-56543065D01*
X78082719Y-56544154D01*
X78080937Y-56543246D01*
X78080652Y-56542547D01*
X78073103Y-56504605D01*
X78049048Y-56468602D01*
X77077056Y-55496610D01*
X77041053Y-55472555D01*
X77003094Y-55465003D01*
X77001590Y-55463684D01*
X77001980Y-55461722D01*
X77002507Y-55461296D01*
X77055655Y-55431532D01*
X77079891Y-55383964D01*
X77081568Y-55382875D01*
X77083350Y-55383783D01*
G37*
G36*
X85119649Y-55383351D02*
G01*
X85120075Y-55383878D01*
X85149839Y-55437026D01*
X85197407Y-55461262D01*
X85198496Y-55462939D01*
X85197588Y-55464721D01*
X85196889Y-55465006D01*
X85158947Y-55472555D01*
X85122944Y-55496610D01*
X84150952Y-56468602D01*
X84126897Y-56504605D01*
X84119345Y-56542564D01*
X84118026Y-56544068D01*
X84116064Y-56543678D01*
X84115638Y-56543151D01*
X84085874Y-56490003D01*
X84038306Y-56465767D01*
X84037217Y-56464090D01*
X84038125Y-56462308D01*
X84038824Y-56462023D01*
X84076766Y-56454474D01*
X84112769Y-56430419D01*
X85084761Y-55458427D01*
X85108816Y-55422424D01*
X85116368Y-55384465D01*
X85117687Y-55382961D01*
X85119649Y-55383351D01*
G37*
G36*
X77366194Y-55100943D02*
G01*
X77366479Y-55101642D01*
X77374027Y-55139582D01*
X77398082Y-55175585D01*
X78370074Y-56147577D01*
X78406077Y-56171632D01*
X78444034Y-56179184D01*
X78445538Y-56180503D01*
X78445148Y-56182465D01*
X78444621Y-56182891D01*
X78391474Y-56212655D01*
X78367238Y-56260220D01*
X78365561Y-56261309D01*
X78363779Y-56260401D01*
X78363494Y-56259702D01*
X78355946Y-56221762D01*
X78331891Y-56185759D01*
X77359899Y-55213767D01*
X77323896Y-55189712D01*
X77285939Y-55182160D01*
X77284435Y-55180841D01*
X77284825Y-55178879D01*
X77285352Y-55178453D01*
X77338499Y-55148689D01*
X77362735Y-55101124D01*
X77364412Y-55100035D01*
X77366194Y-55100943D01*
G37*
G36*
X84836806Y-55100510D02*
G01*
X84837232Y-55101037D01*
X84866994Y-55154182D01*
X84914561Y-55178420D01*
X84915650Y-55180097D01*
X84914742Y-55181879D01*
X84914043Y-55182164D01*
X84876104Y-55189712D01*
X84840101Y-55213767D01*
X83868109Y-56185759D01*
X83844054Y-56221762D01*
X83836502Y-56259720D01*
X83835183Y-56261224D01*
X83833221Y-56260834D01*
X83832795Y-56260307D01*
X83803033Y-56207162D01*
X83755466Y-56182924D01*
X83754377Y-56181247D01*
X83755285Y-56179465D01*
X83755984Y-56179180D01*
X83793923Y-56171632D01*
X83829926Y-56147577D01*
X84801918Y-55175585D01*
X84825973Y-55139582D01*
X84833525Y-55101624D01*
X84834844Y-55100120D01*
X84836806Y-55100510D01*
G37*
G36*
X77649036Y-54818098D02*
G01*
X77649321Y-54818797D01*
X77656870Y-54856739D01*
X77680925Y-54892742D01*
X78652917Y-55864734D01*
X78688920Y-55888789D01*
X78726879Y-55896341D01*
X78728383Y-55897660D01*
X78727993Y-55899622D01*
X78727466Y-55900048D01*
X78674318Y-55929812D01*
X78650082Y-55977380D01*
X78648405Y-55978469D01*
X78646623Y-55977561D01*
X78646338Y-55976862D01*
X78638789Y-55938920D01*
X78614734Y-55902917D01*
X77642742Y-54930925D01*
X77606739Y-54906870D01*
X77568780Y-54899318D01*
X77567276Y-54897999D01*
X77567666Y-54896037D01*
X77568193Y-54895611D01*
X77621341Y-54865847D01*
X77645577Y-54818279D01*
X77647254Y-54817190D01*
X77649036Y-54818098D01*
G37*
G36*
X84553963Y-54817666D02*
G01*
X84554389Y-54818193D01*
X84584153Y-54871341D01*
X84631721Y-54895577D01*
X84632810Y-54897254D01*
X84631902Y-54899036D01*
X84631203Y-54899321D01*
X84593261Y-54906870D01*
X84557258Y-54930925D01*
X83585266Y-55902917D01*
X83561211Y-55938920D01*
X83553659Y-55976879D01*
X83552340Y-55978383D01*
X83550378Y-55977993D01*
X83549952Y-55977466D01*
X83520188Y-55924318D01*
X83472620Y-55900082D01*
X83471531Y-55898405D01*
X83472439Y-55896623D01*
X83473138Y-55896338D01*
X83511080Y-55888789D01*
X83547083Y-55864734D01*
X84519075Y-54892742D01*
X84543130Y-54856739D01*
X84550682Y-54818780D01*
X84552001Y-54817276D01*
X84553963Y-54817666D01*
G37*
G36*
X77931879Y-54535258D02*
G01*
X77932164Y-54535957D01*
X77939712Y-54573896D01*
X77963767Y-54609899D01*
X78935759Y-55581891D01*
X78971762Y-55605946D01*
X79009720Y-55613498D01*
X79011224Y-55614817D01*
X79010834Y-55616779D01*
X79010307Y-55617205D01*
X78957162Y-55646967D01*
X78932924Y-55694534D01*
X78931247Y-55695623D01*
X78929465Y-55694715D01*
X78929180Y-55694016D01*
X78921632Y-55656077D01*
X78897577Y-55620074D01*
X77925585Y-54648082D01*
X77889582Y-54624027D01*
X77851624Y-54616475D01*
X77850120Y-54615156D01*
X77850510Y-54613194D01*
X77851037Y-54612768D01*
X77904182Y-54583006D01*
X77928420Y-54535439D01*
X77930097Y-54534350D01*
X77931879Y-54535258D01*
G37*
G36*
X84271121Y-54534825D02*
G01*
X84271547Y-54535352D01*
X84301311Y-54588499D01*
X84348876Y-54612735D01*
X84349965Y-54614412D01*
X84349057Y-54616194D01*
X84348358Y-54616479D01*
X84310418Y-54624027D01*
X84274415Y-54648082D01*
X83302423Y-55620074D01*
X83278368Y-55656077D01*
X83270816Y-55694034D01*
X83269497Y-55695538D01*
X83267535Y-55695148D01*
X83267109Y-55694621D01*
X83237345Y-55641474D01*
X83189780Y-55617238D01*
X83188691Y-55615561D01*
X83189599Y-55613779D01*
X83190298Y-55613494D01*
X83228238Y-55605946D01*
X83264241Y-55581891D01*
X84236233Y-54609899D01*
X84260288Y-54573896D01*
X84267840Y-54535939D01*
X84269159Y-54534435D01*
X84271121Y-54534825D01*
G37*
G36*
X78214721Y-54252412D02*
G01*
X78215006Y-54253111D01*
X78222555Y-54291053D01*
X78246610Y-54327056D01*
X79218602Y-55299048D01*
X79254605Y-55323103D01*
X79292564Y-55330655D01*
X79294068Y-55331974D01*
X79293678Y-55333936D01*
X79293151Y-55334362D01*
X79240003Y-55364126D01*
X79215767Y-55411694D01*
X79214090Y-55412783D01*
X79212308Y-55411875D01*
X79212023Y-55411176D01*
X79204474Y-55373234D01*
X79180419Y-55337231D01*
X78208427Y-54365239D01*
X78172424Y-54341184D01*
X78134465Y-54333632D01*
X78132961Y-54332313D01*
X78133351Y-54330351D01*
X78133878Y-54329925D01*
X78187026Y-54300161D01*
X78211262Y-54252593D01*
X78212939Y-54251504D01*
X78214721Y-54252412D01*
G37*
G36*
X83988278Y-54251980D02*
G01*
X83988704Y-54252507D01*
X84018468Y-54305655D01*
X84066036Y-54329891D01*
X84067125Y-54331568D01*
X84066217Y-54333350D01*
X84065518Y-54333635D01*
X84027576Y-54341184D01*
X83991573Y-54365239D01*
X83019581Y-55337231D01*
X82995526Y-55373234D01*
X82987974Y-55411193D01*
X82986655Y-55412697D01*
X82984693Y-55412307D01*
X82984267Y-55411780D01*
X82954503Y-55358632D01*
X82906935Y-55334396D01*
X82905846Y-55332719D01*
X82906754Y-55330937D01*
X82907453Y-55330652D01*
X82945395Y-55323103D01*
X82981398Y-55299048D01*
X83953390Y-54327056D01*
X83977445Y-54291053D01*
X83984997Y-54253094D01*
X83986316Y-54251590D01*
X83988278Y-54251980D01*
G37*
G36*
X78497565Y-53969572D02*
G01*
X78497850Y-53970271D01*
X78505398Y-54008211D01*
X78529453Y-54044214D01*
X79501445Y-55016206D01*
X79537448Y-55040261D01*
X79575405Y-55047813D01*
X79576909Y-55049132D01*
X79576519Y-55051094D01*
X79575992Y-55051520D01*
X79522845Y-55081284D01*
X79498609Y-55128849D01*
X79496932Y-55129938D01*
X79495150Y-55129030D01*
X79494865Y-55128331D01*
X79487317Y-55090391D01*
X79463262Y-55054388D01*
X78491270Y-54082396D01*
X78455267Y-54058341D01*
X78417310Y-54050789D01*
X78415806Y-54049470D01*
X78416196Y-54047508D01*
X78416723Y-54047082D01*
X78469870Y-54017318D01*
X78494106Y-53969753D01*
X78495783Y-53968664D01*
X78497565Y-53969572D01*
G37*
G36*
X83705435Y-53969139D02*
G01*
X83705861Y-53969666D01*
X83735623Y-54022811D01*
X83783190Y-54047049D01*
X83784279Y-54048726D01*
X83783371Y-54050508D01*
X83782672Y-54050793D01*
X83744733Y-54058341D01*
X83708730Y-54082396D01*
X82736738Y-55054388D01*
X82712683Y-55090391D01*
X82705131Y-55128349D01*
X82703812Y-55129853D01*
X82701850Y-55129463D01*
X82701424Y-55128936D01*
X82671662Y-55075791D01*
X82624095Y-55051553D01*
X82623006Y-55049876D01*
X82623914Y-55048094D01*
X82624613Y-55047809D01*
X82662552Y-55040261D01*
X82698555Y-55016206D01*
X83670547Y-54044214D01*
X83694602Y-54008211D01*
X83702154Y-53970253D01*
X83703473Y-53968749D01*
X83705435Y-53969139D01*
G37*
G36*
X78780407Y-53686730D02*
G01*
X78780692Y-53687429D01*
X78788240Y-53725368D01*
X78812295Y-53761371D01*
X79784287Y-54733363D01*
X79820290Y-54757418D01*
X79858248Y-54764970D01*
X79859752Y-54766289D01*
X79859362Y-54768251D01*
X79858835Y-54768677D01*
X79805690Y-54798439D01*
X79781452Y-54846006D01*
X79779775Y-54847095D01*
X79777993Y-54846187D01*
X79777708Y-54845488D01*
X79770160Y-54807549D01*
X79746105Y-54771546D01*
X78774113Y-53799554D01*
X78738110Y-53775499D01*
X78700152Y-53767947D01*
X78698648Y-53766628D01*
X78699038Y-53764666D01*
X78699565Y-53764240D01*
X78752710Y-53734478D01*
X78776948Y-53686911D01*
X78778625Y-53685822D01*
X78780407Y-53686730D01*
G37*
G36*
X83422593Y-53686297D02*
G01*
X83423019Y-53686824D01*
X83452783Y-53739971D01*
X83500348Y-53764207D01*
X83501437Y-53765884D01*
X83500529Y-53767666D01*
X83499830Y-53767951D01*
X83461890Y-53775499D01*
X83425887Y-53799554D01*
X82453895Y-54771546D01*
X82429840Y-54807549D01*
X82422288Y-54845506D01*
X82420969Y-54847010D01*
X82419007Y-54846620D01*
X82418581Y-54846093D01*
X82388817Y-54792946D01*
X82341252Y-54768710D01*
X82340163Y-54767033D01*
X82341071Y-54765251D01*
X82341770Y-54764966D01*
X82379710Y-54757418D01*
X82415713Y-54733363D01*
X83387705Y-53761371D01*
X83411760Y-53725368D01*
X83419312Y-53687411D01*
X83420631Y-53685907D01*
X83422593Y-53686297D01*
G37*
G36*
X79063249Y-53403884D02*
G01*
X79063534Y-53404583D01*
X79071083Y-53442525D01*
X79095138Y-53478528D01*
X80067130Y-54450520D01*
X80103133Y-54474575D01*
X80141092Y-54482127D01*
X80142596Y-54483446D01*
X80142206Y-54485408D01*
X80141679Y-54485834D01*
X80088531Y-54515598D01*
X80064295Y-54563166D01*
X80062618Y-54564255D01*
X80060836Y-54563347D01*
X80060551Y-54562648D01*
X80053002Y-54524706D01*
X80028947Y-54488703D01*
X79056955Y-53516711D01*
X79020952Y-53492656D01*
X78982993Y-53485104D01*
X78981489Y-53483785D01*
X78981879Y-53481823D01*
X78982406Y-53481397D01*
X79035554Y-53451633D01*
X79059790Y-53404065D01*
X79061467Y-53402976D01*
X79063249Y-53403884D01*
G37*
G36*
X83139750Y-53403452D02*
G01*
X83140176Y-53403979D01*
X83169940Y-53457127D01*
X83217508Y-53481363D01*
X83218597Y-53483040D01*
X83217689Y-53484822D01*
X83216990Y-53485107D01*
X83179048Y-53492656D01*
X83143045Y-53516711D01*
X82171053Y-54488703D01*
X82146998Y-54524706D01*
X82139446Y-54562665D01*
X82138127Y-54564169D01*
X82136165Y-54563779D01*
X82135739Y-54563252D01*
X82105975Y-54510104D01*
X82058407Y-54485868D01*
X82057318Y-54484191D01*
X82058226Y-54482409D01*
X82058925Y-54482124D01*
X82096867Y-54474575D01*
X82132870Y-54450520D01*
X83104862Y-53478528D01*
X83128917Y-53442525D01*
X83136469Y-53404566D01*
X83137788Y-53403062D01*
X83139750Y-53403452D01*
G37*
G36*
X79346093Y-53121044D02*
G01*
X79346378Y-53121743D01*
X79353926Y-53159683D01*
X79377981Y-53195686D01*
X80349973Y-54167678D01*
X80385976Y-54191733D01*
X80423933Y-54199285D01*
X80425437Y-54200604D01*
X80425047Y-54202566D01*
X80424520Y-54202992D01*
X80371373Y-54232756D01*
X80347137Y-54280321D01*
X80345460Y-54281410D01*
X80343678Y-54280502D01*
X80343393Y-54279803D01*
X80335845Y-54241863D01*
X80311790Y-54205860D01*
X79339798Y-53233868D01*
X79303795Y-53209813D01*
X79265838Y-53202261D01*
X79264334Y-53200942D01*
X79264724Y-53198980D01*
X79265251Y-53198554D01*
X79318398Y-53168790D01*
X79342634Y-53121225D01*
X79344311Y-53120136D01*
X79346093Y-53121044D01*
G37*
G36*
X82856907Y-53120611D02*
G01*
X82857333Y-53121138D01*
X82887095Y-53174283D01*
X82934662Y-53198521D01*
X82935751Y-53200198D01*
X82934843Y-53201980D01*
X82934144Y-53202265D01*
X82896205Y-53209813D01*
X82860202Y-53233868D01*
X81888210Y-54205860D01*
X81864155Y-54241863D01*
X81856603Y-54279821D01*
X81855284Y-54281325D01*
X81853322Y-54280935D01*
X81852896Y-54280408D01*
X81823134Y-54227263D01*
X81775567Y-54203025D01*
X81774478Y-54201348D01*
X81775386Y-54199566D01*
X81776085Y-54199281D01*
X81814024Y-54191733D01*
X81850027Y-54167678D01*
X82822019Y-53195686D01*
X82846074Y-53159683D01*
X82853626Y-53121725D01*
X82854945Y-53120221D01*
X82856907Y-53120611D01*
G37*
G36*
X79628935Y-52838199D02*
G01*
X79629220Y-52838898D01*
X79636769Y-52876840D01*
X79660824Y-52912843D01*
X80632816Y-53884835D01*
X80668819Y-53908890D01*
X80706778Y-53916442D01*
X80708282Y-53917761D01*
X80707892Y-53919723D01*
X80707365Y-53920149D01*
X80654217Y-53949913D01*
X80629981Y-53997481D01*
X80628304Y-53998570D01*
X80626522Y-53997662D01*
X80626237Y-53996963D01*
X80618688Y-53959021D01*
X80594633Y-53923018D01*
X79622641Y-52951026D01*
X79586638Y-52926971D01*
X79548679Y-52919419D01*
X79547175Y-52918100D01*
X79547565Y-52916138D01*
X79548092Y-52915712D01*
X79601240Y-52885948D01*
X79625476Y-52838380D01*
X79627153Y-52837291D01*
X79628935Y-52838199D01*
G37*
G36*
X82574064Y-52837767D02*
G01*
X82574490Y-52838294D01*
X82604254Y-52891442D01*
X82651822Y-52915678D01*
X82652911Y-52917355D01*
X82652003Y-52919137D01*
X82651304Y-52919422D01*
X82613362Y-52926971D01*
X82577359Y-52951026D01*
X81605367Y-53923018D01*
X81581312Y-53959021D01*
X81573760Y-53996980D01*
X81572441Y-53998484D01*
X81570479Y-53998094D01*
X81570053Y-53997567D01*
X81540289Y-53944419D01*
X81492721Y-53920183D01*
X81491632Y-53918506D01*
X81492540Y-53916724D01*
X81493239Y-53916439D01*
X81531181Y-53908890D01*
X81567184Y-53884835D01*
X82539176Y-52912843D01*
X82563231Y-52876840D01*
X82570783Y-52838881D01*
X82572102Y-52837377D01*
X82574064Y-52837767D01*
G37*
G36*
X23720181Y-49319966D02*
G01*
X23720571Y-49321928D01*
X23720248Y-49322523D01*
X23685881Y-49366118D01*
X23683507Y-49426573D01*
X23717186Y-49476977D01*
X23717317Y-49478973D01*
X23715654Y-49480084D01*
X23715133Y-49480050D01*
X23699801Y-49477000D01*
X23150199Y-49477000D01*
X23131713Y-49480677D01*
X23129819Y-49480034D01*
X23129429Y-49478072D01*
X23129752Y-49477477D01*
X23164119Y-49433882D01*
X23166493Y-49373427D01*
X23132814Y-49323023D01*
X23132683Y-49321027D01*
X23134346Y-49319916D01*
X23134867Y-49319950D01*
X23150199Y-49323000D01*
X23699801Y-49323000D01*
X23718287Y-49319323D01*
X23720181Y-49319966D01*
G37*
G36*
X26070181Y-49319966D02*
G01*
X26070571Y-49321928D01*
X26070248Y-49322523D01*
X26035881Y-49366118D01*
X26033507Y-49426573D01*
X26067186Y-49476977D01*
X26067317Y-49478973D01*
X26065654Y-49480084D01*
X26065133Y-49480050D01*
X26049801Y-49477000D01*
X25500199Y-49477000D01*
X25481713Y-49480677D01*
X25479819Y-49480034D01*
X25479429Y-49478072D01*
X25479752Y-49477477D01*
X25514119Y-49433882D01*
X25516493Y-49373427D01*
X25482814Y-49323023D01*
X25482683Y-49321027D01*
X25484346Y-49319916D01*
X25484867Y-49319950D01*
X25500199Y-49323000D01*
X26049801Y-49323000D01*
X26068287Y-49319323D01*
X26070181Y-49319966D01*
G37*
G36*
X23720181Y-48819966D02*
G01*
X23720571Y-48821928D01*
X23720248Y-48822523D01*
X23685881Y-48866118D01*
X23683507Y-48926573D01*
X23717186Y-48976977D01*
X23717317Y-48978973D01*
X23715654Y-48980084D01*
X23715133Y-48980050D01*
X23699801Y-48977000D01*
X23150199Y-48977000D01*
X23131713Y-48980677D01*
X23129819Y-48980034D01*
X23129429Y-48978072D01*
X23129752Y-48977477D01*
X23164119Y-48933882D01*
X23166493Y-48873427D01*
X23132814Y-48823023D01*
X23132683Y-48821027D01*
X23134346Y-48819916D01*
X23134867Y-48819950D01*
X23150199Y-48823000D01*
X23699801Y-48823000D01*
X23718287Y-48819323D01*
X23720181Y-48819966D01*
G37*
G36*
X26070181Y-48819966D02*
G01*
X26070571Y-48821928D01*
X26070248Y-48822523D01*
X26035881Y-48866118D01*
X26033507Y-48926573D01*
X26067186Y-48976977D01*
X26067317Y-48978973D01*
X26065654Y-48980084D01*
X26065133Y-48980050D01*
X26049801Y-48977000D01*
X25500199Y-48977000D01*
X25481713Y-48980677D01*
X25479819Y-48980034D01*
X25479429Y-48978072D01*
X25479752Y-48977477D01*
X25514119Y-48933882D01*
X25516493Y-48873427D01*
X25482814Y-48823023D01*
X25482683Y-48821027D01*
X25484346Y-48819916D01*
X25484867Y-48819950D01*
X25500199Y-48823000D01*
X26049801Y-48823000D01*
X26068287Y-48819323D01*
X26070181Y-48819966D01*
G37*
G36*
X26070181Y-48319966D02*
G01*
X26070571Y-48321928D01*
X26070248Y-48322523D01*
X26035881Y-48366118D01*
X26033507Y-48426573D01*
X26067186Y-48476977D01*
X26067317Y-48478973D01*
X26065654Y-48480084D01*
X26065133Y-48480050D01*
X26049801Y-48477000D01*
X25500199Y-48477000D01*
X25481713Y-48480677D01*
X25479819Y-48480034D01*
X25479429Y-48478072D01*
X25479752Y-48477477D01*
X25514119Y-48433882D01*
X25516493Y-48373427D01*
X25482814Y-48323023D01*
X25482683Y-48321027D01*
X25484346Y-48319916D01*
X25484867Y-48319950D01*
X25500199Y-48323000D01*
X26049801Y-48323000D01*
X26068287Y-48319323D01*
X26070181Y-48319966D01*
G37*
G36*
X23720181Y-48319966D02*
G01*
X23720571Y-48321928D01*
X23720248Y-48322523D01*
X23685881Y-48366118D01*
X23683507Y-48426573D01*
X23717186Y-48476977D01*
X23717317Y-48478973D01*
X23715654Y-48480084D01*
X23715133Y-48480050D01*
X23699801Y-48477000D01*
X23150199Y-48477000D01*
X23131713Y-48480677D01*
X23129819Y-48480034D01*
X23129429Y-48478072D01*
X23129752Y-48477477D01*
X23164119Y-48433882D01*
X23166493Y-48373427D01*
X23132814Y-48323023D01*
X23132683Y-48321027D01*
X23134346Y-48319916D01*
X23134867Y-48319950D01*
X23150199Y-48323000D01*
X23699801Y-48323000D01*
X23718287Y-48319323D01*
X23720181Y-48319966D01*
G37*
G36*
X73317429Y-38656481D02*
G01*
X73329145Y-38664309D01*
X73347699Y-38668000D01*
X73897301Y-38668000D01*
X73915855Y-38664309D01*
X73927571Y-38656481D01*
X73929567Y-38656350D01*
X73930678Y-38658013D01*
X73930345Y-38659255D01*
X73926311Y-38665291D01*
X73909786Y-38723885D01*
X73926288Y-38774675D01*
X73930345Y-38780745D01*
X73930476Y-38782740D01*
X73928813Y-38783852D01*
X73927571Y-38783519D01*
X73915855Y-38775691D01*
X73897301Y-38772000D01*
X73347699Y-38772000D01*
X73329145Y-38775691D01*
X73317429Y-38783519D01*
X73315433Y-38783650D01*
X73314322Y-38781987D01*
X73314655Y-38780745D01*
X73318689Y-38774709D01*
X73335214Y-38716115D01*
X73318712Y-38665325D01*
X73314655Y-38659255D01*
X73314524Y-38657260D01*
X73316187Y-38656148D01*
X73317429Y-38656481D01*
G37*
G36*
X70567429Y-38656481D02*
G01*
X70579145Y-38664309D01*
X70597699Y-38668000D01*
X71147301Y-38668000D01*
X71165855Y-38664309D01*
X71177571Y-38656481D01*
X71179567Y-38656350D01*
X71180678Y-38658013D01*
X71180345Y-38659255D01*
X71176311Y-38665291D01*
X71159786Y-38723885D01*
X71176288Y-38774675D01*
X71180345Y-38780745D01*
X71180476Y-38782740D01*
X71178813Y-38783852D01*
X71177571Y-38783519D01*
X71165855Y-38775691D01*
X71147301Y-38772000D01*
X70597699Y-38772000D01*
X70579145Y-38775691D01*
X70567429Y-38783519D01*
X70565433Y-38783650D01*
X70564322Y-38781987D01*
X70564655Y-38780745D01*
X70568689Y-38774709D01*
X70585214Y-38716115D01*
X70568712Y-38665325D01*
X70564655Y-38659255D01*
X70564524Y-38657260D01*
X70566187Y-38656148D01*
X70567429Y-38656481D01*
G37*
G36*
X70567429Y-38156481D02*
G01*
X70579145Y-38164309D01*
X70597699Y-38168000D01*
X71147301Y-38168000D01*
X71165855Y-38164309D01*
X71177571Y-38156481D01*
X71179567Y-38156350D01*
X71180678Y-38158013D01*
X71180345Y-38159255D01*
X71176311Y-38165291D01*
X71159786Y-38223885D01*
X71176288Y-38274675D01*
X71180345Y-38280745D01*
X71180476Y-38282740D01*
X71178813Y-38283852D01*
X71177571Y-38283519D01*
X71165855Y-38275691D01*
X71147301Y-38272000D01*
X70597699Y-38272000D01*
X70579145Y-38275691D01*
X70567429Y-38283519D01*
X70565433Y-38283650D01*
X70564322Y-38281987D01*
X70564655Y-38280745D01*
X70568689Y-38274709D01*
X70585214Y-38216115D01*
X70568712Y-38165325D01*
X70564655Y-38159255D01*
X70564524Y-38157260D01*
X70566187Y-38156148D01*
X70567429Y-38156481D01*
G37*
G36*
X73317429Y-38156481D02*
G01*
X73329145Y-38164309D01*
X73347699Y-38168000D01*
X73897301Y-38168000D01*
X73915855Y-38164309D01*
X73927571Y-38156481D01*
X73929567Y-38156350D01*
X73930678Y-38158013D01*
X73930345Y-38159255D01*
X73926311Y-38165291D01*
X73909786Y-38223885D01*
X73926288Y-38274675D01*
X73930345Y-38280745D01*
X73930476Y-38282740D01*
X73928813Y-38283852D01*
X73927571Y-38283519D01*
X73915855Y-38275691D01*
X73897301Y-38272000D01*
X73347699Y-38272000D01*
X73329145Y-38275691D01*
X73317429Y-38283519D01*
X73315433Y-38283650D01*
X73314322Y-38281987D01*
X73314655Y-38280745D01*
X73318689Y-38274709D01*
X73335214Y-38216115D01*
X73318712Y-38165325D01*
X73314655Y-38159255D01*
X73314524Y-38157260D01*
X73316187Y-38156148D01*
X73317429Y-38156481D01*
G37*
G36*
X73317429Y-37656481D02*
G01*
X73329145Y-37664309D01*
X73347699Y-37668000D01*
X73897301Y-37668000D01*
X73915855Y-37664309D01*
X73927571Y-37656481D01*
X73929567Y-37656350D01*
X73930678Y-37658013D01*
X73930345Y-37659255D01*
X73926311Y-37665291D01*
X73909786Y-37723885D01*
X73926288Y-37774675D01*
X73930345Y-37780745D01*
X73930476Y-37782740D01*
X73928813Y-37783852D01*
X73927571Y-37783519D01*
X73915855Y-37775691D01*
X73897301Y-37772000D01*
X73347699Y-37772000D01*
X73329145Y-37775691D01*
X73317429Y-37783519D01*
X73315433Y-37783650D01*
X73314322Y-37781987D01*
X73314655Y-37780745D01*
X73318689Y-37774709D01*
X73335214Y-37716115D01*
X73318712Y-37665325D01*
X73314655Y-37659255D01*
X73314524Y-37657260D01*
X73316187Y-37656148D01*
X73317429Y-37656481D01*
G37*
G36*
X70567429Y-37656481D02*
G01*
X70579145Y-37664309D01*
X70597699Y-37668000D01*
X71147301Y-37668000D01*
X71165855Y-37664309D01*
X71177571Y-37656481D01*
X71179567Y-37656350D01*
X71180678Y-37658013D01*
X71180345Y-37659255D01*
X71176311Y-37665291D01*
X71159786Y-37723885D01*
X71176288Y-37774675D01*
X71180345Y-37780745D01*
X71180476Y-37782740D01*
X71178813Y-37783852D01*
X71177571Y-37783519D01*
X71165855Y-37775691D01*
X71147301Y-37772000D01*
X70597699Y-37772000D01*
X70579145Y-37775691D01*
X70567429Y-37783519D01*
X70565433Y-37783650D01*
X70564322Y-37781987D01*
X70564655Y-37780745D01*
X70568689Y-37774709D01*
X70585214Y-37716115D01*
X70568712Y-37665325D01*
X70564655Y-37659255D01*
X70564524Y-37657260D01*
X70566187Y-37656148D01*
X70567429Y-37656481D01*
G37*
M02*
